<svg width="36" height="37" viewBox="0 0 36 37" fill="none" xmlns="http://www.w3.org/2000/svg">
<path d="M5.68956 31.2953C5.69086 31.2953 5.69211 31.2958 5.69303 31.2967C5.70087 31.3046 5.70895 31.3124 5.71714 31.3203C5.75581 31.3574 5.81949 31.3512 5.85024 31.3073L6.98012 29.6934C7.02736 29.626 7.07003 29.555 7.10666 29.4812C8.11007 27.4607 8.50249 25.6157 8.51421 24.0413C8.49825 23.1838 8.37863 22.3341 8.16339 21.5086C8.01187 21.0116 7.90026 20.4986 7.82848 19.9816C7.82848 19.9776 7.82848 19.9696 7.82848 19.9616C7.78064 19.6169 7.74874 19.2643 7.73283 18.9116C7.51389 13.2378 11.8929 8.37499 17.5171 8.04034C17.5271 8.03975 17.5316 8.02739 17.5242 8.02068V8.02068C17.5168 8.01398 17.5208 8.00171 17.5308 8.00112C18.8734 7.92237 20.8161 8.2123 22.4479 7.78231C24.1503 7.29735 25.6971 6.35555 26.9251 5.05704V5.05704C27.0429 4.93072 27.1751 4.81622 27.2743 4.67484L27.3049 4.63134C27.8431 3.8645 27.6593 2.79862 26.8439 2.33728C22.2178 -0.280023 16.4905 -0.827158 11.1933 1.34996C1.99189 5.12522 -2.41744 15.6894 1.34206 24.9391C2.28294 27.2517 3.6424 29.2634 5.30089 30.9187C5.428 31.0464 5.55515 31.1701 5.6862 31.294C5.68711 31.2948 5.68831 31.2953 5.68956 31.2953V31.2953Z" fill="#1E1E1E"/>
<path d="M29.2494 6.19312C29.1664 6.31145 29.1092 6.44502 29.0441 6.57409C29.0356 6.59101 29.0265 6.6077 29.0167 6.62405C27.9283 8.67196 27.4659 11.7659 27.5654 12.9883C27.7233 14.9498 28.3046 16.2465 28.1725 17.7329C28.163 17.8401 28.1572 17.9482 28.1583 18.0558C28.2148 23.62 23.8663 28.3177 18.3322 28.6297C18.3243 28.6301 18.3162 28.6303 18.3083 28.6303V28.6303C17.0764 28.7103 16.9328 28.5901 15.8046 28.6422C13.5177 28.7446 11.0807 29.6897 9.36276 31.4552C9.30074 31.519 9.24475 31.5883 9.19379 31.6612L8.80011 32.224C8.42604 32.7588 8.56696 33.4943 9.12285 33.8362V33.8362C9.27829 33.9244 9.43379 34.0085 9.58928 34.0926C14.1382 36.5053 19.6757 36.9501 24.8066 34.8421C34.0081 31.0629 38.4173 20.4986 34.6579 11.2489C33.8551 9.27528 32.7439 7.51888 31.4039 6.01594C30.8088 5.34845 29.763 5.461 29.2494 6.19312V6.19312Z" fill="#1E1E1E"/>
</svg>
