<svg width="450" height="139" viewBox="0 0 450 139" fill="none" xmlns="http://www.w3.org/2000/svg">
<path d="M142.915 43.1556C143.212 43.1551 143.51 43.1547 143.817 43.1543C144.808 43.1534 145.798 43.1562 146.788 43.159C147.501 43.1591 148.214 43.159 148.927 43.1588C150.858 43.1586 152.788 43.1616 154.718 43.1651C156.738 43.1683 158.757 43.1686 160.776 43.1692C164.163 43.1706 167.551 43.1737 170.938 43.1782C174.426 43.1829 177.914 43.1865 181.402 43.1886C181.725 43.1888 181.725 43.1888 182.055 43.189C183.135 43.1897 184.215 43.1903 185.295 43.1909C194.244 43.1962 203.193 43.2052 212.143 43.2164C212.143 45.3848 212.143 47.5532 212.143 49.7873C210.8 49.7887 210.8 49.7887 209.431 49.7901C201.003 49.7992 192.574 49.8139 184.146 49.8337C183.283 49.8358 182.42 49.8377 181.557 49.8397C181.343 49.8402 181.129 49.8407 180.908 49.8412C177.439 49.849 173.97 49.8533 170.501 49.8563C166.939 49.8595 163.377 49.8665 159.815 49.8769C157.816 49.8826 155.816 49.8866 153.817 49.8863C151.933 49.8861 150.05 49.8907 148.167 49.8988C147.477 49.9009 146.787 49.9014 146.097 49.8999C145.152 49.8983 144.207 49.9028 143.263 49.9088C142.856 49.9059 142.856 49.9059 142.442 49.9029C139.925 49.9312 137.574 50.4939 135.683 51.8407C131.964 55.4669 133.25 59.1512 133.071 63.94C159.165 63.94 185.258 63.94 212.143 63.94C212.143 66.1084 212.143 68.2768 212.143 70.5109C186.049 70.5109 159.955 70.5109 133.071 70.5109C132.703 77.1266 132.703 77.1266 135.361 82.4681C137.895 84.3306 140.665 84.7006 143.997 84.7036C144.434 84.7055 144.434 84.7055 144.88 84.7074C145.857 84.7113 146.834 84.7134 147.81 84.7155C148.51 84.7179 149.21 84.7205 149.91 84.7231C151.812 84.7299 153.713 84.7353 155.614 84.7403C157.601 84.7458 159.587 84.7527 161.574 84.7595C165.336 84.7721 169.098 84.7835 172.861 84.7944C177.144 84.8069 181.427 84.8208 185.71 84.8348C194.521 84.8635 203.332 84.8905 212.143 84.9164C212.143 87.0014 212.143 89.0864 212.143 91.2345C202.9 91.2463 193.657 91.2553 184.414 91.2607C180.123 91.2633 175.831 91.2669 171.539 91.2727C167.798 91.2777 164.057 91.281 160.316 91.2821C158.335 91.2828 156.355 91.2843 154.374 91.288C152.509 91.2914 150.643 91.2925 148.778 91.2917C148.095 91.2919 147.411 91.2929 146.728 91.2948C140.154 91.3126 134.575 90.8393 129.487 87.2018C125.964 84.3362 124.611 80.7948 124.626 76.8904C124.624 76.6583 124.622 76.4261 124.621 76.187C124.616 75.4276 124.617 74.6683 124.617 73.9089C124.616 73.3758 124.615 72.8427 124.613 72.3097C124.611 71.1953 124.611 70.0809 124.613 68.9665C124.614 67.5452 124.609 66.124 124.602 64.7027C124.597 63.6026 124.597 62.5024 124.598 61.4023C124.597 60.8786 124.596 60.3548 124.592 59.8311C124.564 54.6565 125.441 50.6223 130.178 46.7545C133.864 44.2689 138.115 43.1297 142.915 43.1556Z" fill="white"/>
<path d="M346.546 43.186C346.991 43.1856 346.991 43.1856 347.445 43.1853C348.44 43.1849 349.434 43.1863 350.429 43.1877C351.141 43.1877 351.854 43.1877 352.567 43.1876C354.503 43.1875 356.438 43.189 358.374 43.1907C360.397 43.1923 362.419 43.1925 364.442 43.1928C367.837 43.1935 371.232 43.195 374.628 43.1973C378.124 43.1996 381.621 43.2014 385.118 43.2025C385.441 43.2026 385.441 43.2026 385.771 43.2027C386.853 43.203 387.934 43.2033 389.016 43.2036C397.987 43.2063 406.958 43.2108 415.929 43.2164C415.929 45.3848 415.929 47.5532 415.929 49.7873C414.586 49.7887 414.586 49.7887 413.217 49.7901C404.789 49.7992 396.36 49.8139 387.932 49.8337C387.069 49.8358 386.206 49.8377 385.343 49.8397C385.129 49.8402 384.915 49.8407 384.694 49.8412C381.225 49.849 377.756 49.8533 374.287 49.8563C370.725 49.8595 367.163 49.8665 363.601 49.8769C361.602 49.8826 359.602 49.8866 357.603 49.8863C355.719 49.8861 353.836 49.8907 351.953 49.8988C351.263 49.9009 350.573 49.9014 349.883 49.8999C348.938 49.8983 347.993 49.9028 347.049 49.9088C346.642 49.9059 346.642 49.9059 346.228 49.9029C343.774 49.9305 341.496 50.4089 339.75 51.8091C339.538 51.8091 339.326 51.8091 339.107 51.8091C338.969 52.029 338.969 52.029 338.828 52.2533C338.603 52.6039 338.369 52.9511 338.12 53.2919C336.969 55.0154 336.848 56.718 337.179 58.6327C337.599 59.5435 338.155 60.3319 338.786 61.16C338.892 61.4102 338.998 61.6604 339.107 61.9182C339.696 62.2016 339.696 62.2016 340.393 62.4236C340.717 62.5531 340.717 62.5531 341.047 62.6852C341.37 62.8138 341.37 62.8138 341.699 62.9449C342.023 63.0744 342.023 63.0744 342.353 63.2065C343.668 63.697 344.724 63.7199 346.166 63.7222C346.395 63.7229 346.625 63.7236 346.861 63.7243C347.63 63.7264 348.4 63.7268 349.17 63.7271C349.721 63.7283 350.272 63.7296 350.824 63.731C352.012 63.7339 353.201 63.736 354.389 63.7376C356.271 63.7403 358.153 63.7454 360.035 63.751C365.388 63.7667 370.74 63.7803 376.092 63.7887C379.047 63.7934 382.002 63.8007 384.957 63.8109C386.52 63.8163 388.082 63.8202 389.645 63.8208C391.117 63.8213 392.59 63.8253 394.062 63.832C394.6 63.8338 395.138 63.8343 395.676 63.8335C401.451 63.8257 406.413 64.6514 410.705 67.8968C414 70.5947 415.879 73.7619 416.029 77.5241C415.928 81.0055 414.429 84.4596 411.356 87.0359C405.817 90.9977 400.022 91.3122 392.905 91.2919C392.202 91.2918 391.498 91.2919 390.795 91.2921C388.893 91.2923 386.991 91.2893 385.09 91.2858C383.099 91.2826 381.109 91.2823 379.118 91.2817C375.353 91.2802 371.587 91.276 367.821 91.2709C363.533 91.2653 359.244 91.2625 354.956 91.26C346.137 91.2547 337.319 91.2457 328.5 91.2345C328.5 89.1495 328.5 87.0645 328.5 84.9164C329.383 84.9149 330.266 84.9134 331.175 84.9119C339.49 84.8975 347.805 84.8791 356.119 84.8568C360.394 84.8454 364.669 84.8355 368.944 84.8288C372.67 84.823 376.396 84.8146 380.122 84.803C382.095 84.7969 384.068 84.7922 386.04 84.7906C387.898 84.7891 389.756 84.784 391.614 84.7763C392.295 84.7741 392.975 84.7731 393.656 84.7736C394.588 84.774 395.52 84.7698 396.452 84.7644C396.719 84.7656 396.987 84.7669 397.262 84.7681C399.932 84.743 402.341 84.331 404.357 82.8945C404.569 82.8945 404.781 82.8945 405 82.8945C405.092 82.7489 405.185 82.6033 405.28 82.4533C405.511 82.0914 405.742 81.73 405.976 81.3693C406.085 81.2002 406.194 81.0311 406.306 80.8569C406.416 80.6872 406.525 80.5175 406.639 80.3426C407.615 78.7247 407.61 76.9381 406.91 75.2505C405.694 73.1746 404.309 72.1354 401.755 71.1301C399.546 70.4927 397.11 70.659 394.789 70.6664C394.242 70.6654 393.694 70.664 393.146 70.6623C391.97 70.6593 390.794 70.6587 389.617 70.6598C387.754 70.6616 385.891 70.6575 384.027 70.6527C380.07 70.6431 376.112 70.6399 372.154 70.6373C367.886 70.6345 363.618 70.6306 359.35 70.6194C357.502 70.6148 355.653 70.6138 353.804 70.6156C352.649 70.616 351.494 70.6132 350.339 70.6097C349.808 70.6087 349.276 70.6089 348.745 70.6106C342.749 70.6283 337.634 69.7914 333.176 66.4278C329.683 63.3617 328.378 60.0606 328.432 56.0186C328.707 52.2787 330.833 49.0441 334.286 46.5018C337.764 44.1324 342.025 43.1739 346.546 43.186Z" fill="white"/>
<path d="M42.4286 44.2273C43.7728 44.9768 45.047 45.7804 46.3149 46.6073C47.1546 47.1546 48.0019 47.6942 48.8489 48.2344C49.2847 48.5126 49.72 48.7911 50.155 49.07C51.5323 49.9528 52.9209 50.8229 54.3215 51.6827C56.4147 52.9681 58.4755 54.2835 60.5341 55.603C61.4591 56.1957 62.3882 56.7843 63.3215 57.3691C64.4718 58.0899 65.6141 58.8181 66.7542 59.5489C68.7781 60.8459 70.8131 62.1294 72.8711 63.3929C74.5312 64.4146 76.165 65.4607 77.7983 66.5087C79.1758 67.3911 80.564 68.2612 81.9643 69.1209C83.8096 70.2538 85.6282 71.4107 87.4419 72.5747C88.8117 73.4524 90.1933 74.3165 91.5871 75.1706C93.2778 76.2072 94.9379 77.2703 96.5893 78.3455C98.9691 79.8942 101.38 81.407 103.821 82.8945C104.087 83.0594 104.353 83.2242 104.626 83.3941C104.851 83.5316 105.076 83.669 105.308 83.8107C105.491 83.9234 105.674 84.0361 105.863 84.1523C106.48 84.4827 106.48 84.4827 107.679 84.6636C107.679 70.986 107.679 57.3084 107.679 43.2164C110.436 43.2164 113.194 43.2164 116.036 43.2164C116.066 48.6383 116.088 54.0602 116.102 59.4822C116.109 61.9999 116.118 64.5176 116.133 67.0352C116.146 69.2304 116.154 71.4256 116.157 73.6209C116.158 74.7825 116.162 75.9441 116.172 77.1057C116.18 78.2008 116.183 79.2957 116.181 80.3908C116.182 80.7911 116.184 81.1913 116.189 81.5916C116.219 84.1734 116.067 86.655 114.027 88.802C111.982 90.3365 109.779 91.2199 106.915 91.3135C102.019 91.19 98.465 88.1283 94.9056 85.8039C93.7146 85.0283 92.5065 84.2726 91.2857 83.5264C89.601 82.4955 87.9477 81.4379 86.3036 80.3673C84.4742 79.1762 82.6286 78.0057 80.7552 76.8577C79.3219 75.9778 77.9087 75.0796 76.5 74.1755C74.905 73.152 73.3013 72.139 71.6786 71.1427C69.8336 70.01 68.0153 68.8531 66.2018 67.6894C64.8243 66.8071 63.4361 65.937 62.0358 65.0773C60.1907 63.9445 58.3725 62.7877 56.5589 61.624C55.1814 60.7417 53.7933 59.8715 52.3929 59.0118C50.55 57.8804 48.7335 56.7251 46.9224 55.5624C45.2989 54.5222 43.6576 53.5013 42.0045 52.4905C41.0266 51.8904 40.0781 51.275 39.1541 50.6244C38.321 49.9597 38.321 49.9597 37.2858 50.04C37.1797 63.6342 37.0736 77.2284 36.9643 91.2345C34.2065 91.2345 31.4486 91.2345 28.6072 91.2345C28.5774 85.7753 28.5545 80.3161 28.5406 74.8568C28.5339 72.3218 28.5249 69.7868 28.5102 67.2519C28.4974 65.0418 28.4891 62.8317 28.4862 60.6215C28.4845 59.4519 28.4806 58.2822 28.4712 57.1126C28.4625 56.0102 28.4598 54.908 28.4618 53.8057C28.4614 53.4024 28.4589 52.9992 28.4539 52.596C28.424 50.0333 28.607 47.7844 30.6161 45.6647C33.9678 43.0892 38.2899 42.3874 42.4286 44.2273Z" fill="white"/>
<path d="M220.821 43.2164C233.163 42.5713 233.163 42.5713 235.833 44.3923C236.548 45.0113 237.2 45.6423 237.8 46.3335C238.299 46.8887 238.893 47.2932 239.565 47.7181C241.334 48.9171 243.059 50.1556 244.793 51.3866C246.01 52.2496 247.229 53.1106 248.464 53.9573C250.261 55.1884 252.024 56.4489 253.793 57.7047C255.433 58.8678 257.084 60.0198 258.75 61.16C259.232 61.4916 259.714 61.8233 260.196 62.1551C260.412 62.3033 260.627 62.4516 260.849 62.6043C261.005 62.7115 261.161 62.8187 261.321 62.9291C262.791 62.614 263.556 61.977 264.576 61.1393C265.362 60.5068 266.205 59.9369 267.056 59.3593C268.376 58.4584 269.667 57.532 270.964 56.6109C274.014 54.4454 274.014 54.4454 275.444 53.4676C276.793 52.5444 278.111 51.5955 279.432 50.6481C280.339 50.0017 281.26 49.3683 282.184 48.7369C283.006 48.1676 283.815 47.5877 284.625 47.0073C287.61 44.8687 287.61 44.8687 288.964 43.9745C289.13 43.8433 289.296 43.7121 289.467 43.5768C290.62 43.0457 291.75 43.1228 293.047 43.1423C293.451 43.1439 293.451 43.1439 293.863 43.1456C294.721 43.1498 295.579 43.1593 296.437 43.169C297.02 43.1728 297.603 43.1762 298.185 43.1793C299.612 43.1877 301.038 43.2008 302.464 43.2164C301.708 43.9698 300.99 44.653 300.053 45.2698C298.906 46.0408 297.788 46.8343 296.678 47.6391C295.618 48.4072 294.554 49.171 293.464 49.9136C292.218 50.7636 291.004 51.6406 289.789 52.5188C288.239 53.6394 286.674 54.7471 285.107 55.8527C284.571 56.2317 284.035 56.6108 283.5 56.99C281.357 58.5064 279.214 60.0227 277.071 61.5391C276.805 61.7274 276.539 61.9157 276.265 62.1097C275.738 62.4825 275.211 62.855 274.683 63.2272C272.573 64.7169 270.481 66.2218 268.393 67.7309C269.681 68.7578 271.008 69.7487 272.35 70.7321C272.565 70.8896 272.78 71.0472 273.002 71.2096C274.246 72.1197 275.501 73.0176 276.789 73.8902C278.36 74.9614 279.892 76.0688 281.436 77.1647C282.646 78.0228 283.857 78.8789 285.087 79.7197C286.435 80.6426 287.753 81.5912 289.073 82.5382C289.99 83.1908 290.918 83.8313 291.851 84.4692C292.595 84.982 293.331 85.5014 294.067 86.0221C294.337 86.2133 294.607 86.4045 294.885 86.6015C295.44 86.9956 295.992 87.3912 296.543 87.7882C297.993 88.8287 299.45 89.8101 301.05 90.7054C301.273 90.8422 301.273 90.8422 301.5 90.9818C301.5 91.0652 301.5 91.1486 301.5 91.2346C299.791 91.3104 298.084 91.3649 296.374 91.4011C295.794 91.4163 295.214 91.4369 294.635 91.4633C289.313 91.7004 289.313 91.7004 287.089 90.1816C286.274 89.55 285.531 88.8851 284.786 88.2018C284.345 87.884 283.899 87.571 283.44 87.2699C282.502 86.6331 281.583 85.9828 280.667 85.3271C279.582 84.5553 278.475 83.8184 277.332 83.0999C275.383 81.8609 273.574 80.5132 271.75 79.1619C270.746 78.4187 269.723 77.6975 268.678 76.99C267.931 76.4807 267.198 75.9601 266.464 75.4391C266.195 75.2495 265.926 75.0599 265.648 74.8645C265.135 74.4996 264.627 74.1299 264.126 73.7549C263.903 73.5914 263.68 73.4278 263.451 73.2593C263.159 73.0394 263.159 73.0394 262.861 72.8151C262.311 72.4868 262.311 72.4868 261.665 72.5485C260.774 72.8657 260.186 73.3017 259.473 73.828C259.19 74.0345 258.906 74.241 258.614 74.4539C258.341 74.6539 258.067 74.8539 257.786 75.06C257.359 75.3565 256.93 75.6515 256.5 75.9446C255.527 76.611 254.565 77.2866 253.607 77.9664C252.444 78.7912 251.272 79.606 250.091 80.4147C249.329 80.9415 248.575 81.4753 247.821 82.01C246.659 82.8349 245.486 83.6497 244.306 84.4583C243.543 84.9851 242.789 85.5189 242.036 86.0536C239.724 87.6939 239.724 87.6939 238.541 88.4704C237.837 88.95 237.837 88.95 237.256 89.5389C236.063 90.5969 235.018 91.2643 233.207 91.4188C231.527 91.4861 229.854 91.4335 228.174 91.3767C227.585 91.3653 226.995 91.3549 226.406 91.3456C224.972 91.3207 223.54 91.2816 222.107 91.2346C222.982 90.5434 223.857 89.8552 224.765 89.191C224.95 89.0559 225.134 88.9208 225.325 88.7816C225.516 88.6424 225.707 88.5032 225.904 88.3598C226.204 88.1412 226.204 88.1412 226.509 87.9182C227.713 87.0433 228.927 86.181 230.168 85.3389C230.918 84.826 231.655 84.3028 232.393 83.7791C233.555 82.9542 234.728 82.1394 235.908 81.3308C236.671 80.804 237.425 80.2702 238.178 79.7355C239.341 78.9106 240.513 78.0958 241.694 77.2872C242.457 76.7603 243.211 76.2265 243.964 75.6918C245.127 74.8669 246.299 74.0522 247.48 73.2435C248.518 72.5265 249.541 71.7967 250.566 71.0687C251.486 70.4199 252.417 69.7819 253.353 69.1476C253.998 68.6929 254.607 68.2158 255.214 67.7309C253.784 66.5798 252.329 65.4733 250.778 64.4237C249.941 63.8512 249.123 63.2645 248.303 62.6764C247.301 61.9573 246.295 61.2429 245.27 60.544C244.001 59.6773 242.766 58.7822 241.529 57.887C240.433 57.0948 239.322 56.3184 238.197 55.5516C237.068 54.7716 235.963 53.9709 234.852 53.1744C234.153 52.6761 233.448 52.1847 232.734 51.6985C231.465 50.8318 230.23 49.9367 228.993 49.0416C227.9 48.2511 226.791 47.4764 225.669 46.7111C222.364 44.4295 222.364 44.4295 220.821 43.2164Z" fill="white"/>
<path d="M311.464 43.2164C314.222 43.2164 316.98 43.2164 319.821 43.2164C319.821 59.0624 319.821 74.9084 319.821 91.2346C317.064 91.2346 314.306 91.2346 311.464 91.2346C311.464 75.3886 311.464 59.5426 311.464 43.2164Z" fill="white"/>
</svg>
