<svg width="106" height="23" viewBox="0 0 106 23" fill="none" xmlns="http://www.w3.org/2000/svg">
<g clip-path="url(#clip0_1130_2891)">
<path d="M2.82749 8.3178C2.78804 8.45154 2.75041 8.58582 2.7146 8.72058C2.52759 9.40813 2.43803 10.1185 2.44854 10.831C2.45861 11.6365 2.3595 12.4379 2.18195 13.2228L2.10245 13.544C1.69382 13.3828 1.27459 13.076 0.874438 12.5645C-0.235382 11.1447 0.134558 8.86686 1.50355 8.33052C2.03938 8.12117 2.48352 8.1747 2.82749 8.3178ZM20.4224 12.564C20.0249 13.0712 19.6094 13.3775 19.2034 13.5392L19.1255 13.2212C18.9433 12.4373 18.8537 11.6347 18.8584 10.8299V10.6911C18.8584 10.0291 18.7656 9.36398 18.5897 8.7121L18.4699 8.31674C18.8133 8.17364 19.2575 8.12064 19.7928 8.32946C21.1618 8.8658 21.5312 11.1437 20.4219 12.5635L20.4224 12.564ZM17.9749 12.9854C17.8212 12.307 17.7364 11.6153 17.7438 10.9184V10.7992C17.7438 10.2268 17.6638 9.65229 17.5117 9.08839L17.3765 8.64109C17.2318 8.21084 17.0497 7.7941 16.8322 7.39563C16.0149 5.8873 14.7127 4.60209 13.1948 3.89457C12.9712 3.79016 12.474 2.63745 12.474 2.63745L11.3032 3.34709C11.1703 3.33172 11.0368 3.32094 10.9031 3.31477L10.5109 2.36133C9.06771 2.85845 8.216 3.83892 7.93828 3.9783C6.49456 4.70067 5.26019 5.9456 4.4742 7.39669C4.25749 7.79541 4.07521 8.21189 3.92936 8.64162C3.91505 8.63314 3.79474 9.08839 3.79474 9.08839C3.64247 9.64598 3.56424 10.2212 3.56207 10.7992V10.9189C3.56667 11.6146 3.48928 12.3084 3.33152 12.9859L3.20273 13.5106L3.1863 13.5848C3.1085 13.9438 3.06941 14.3102 3.0697 14.6776C3.0697 17.2273 4.93212 19.4209 7.6012 20.3855C8.20858 20.606 8.85889 20.7618 9.53782 20.8445C9.87596 20.8853 10.2205 20.9075 10.5724 20.9107H10.654C14.8421 20.9107 18.2372 18.1193 18.2372 14.6771C18.2374 14.2844 18.1926 13.893 18.1037 13.5106L17.9749 12.9854ZM45.307 9.01896C45.9541 9.31522 46.4528 9.73444 46.8026 10.2787C47.1524 10.823 47.3273 11.4675 47.3273 12.2116C47.3273 12.9562 47.1524 13.589 46.8026 14.1375C46.4528 14.6866 45.9546 15.1063 45.307 15.3973C44.6593 15.6888 43.8961 15.834 43.0169 15.834H41.0166V18.5973H38.7196V8.57537H43.0163C43.8956 8.57537 44.6588 8.72376 45.3059 9.01896H45.307ZM44.4632 13.4936C44.822 13.1931 45.0022 12.7659 45.0022 12.2116C45.0022 11.6577 44.8231 11.2168 44.4632 10.9158C44.1039 10.6153 43.5792 10.4648 42.8891 10.4648H41.0166V13.9446H42.8886C43.5787 13.9446 44.1034 13.7941 44.4632 13.4936ZM56.7364 16.7366V18.5984H49.0504V8.57537H56.552V10.4367H51.3336V12.6133H55.942V14.4174H51.3336V16.7366H56.7364ZM67.3926 14.2955C67.7143 14.7205 67.8754 15.2431 67.8754 15.8637C67.8754 16.7419 67.5373 17.4165 66.8616 17.8898C66.1858 18.3615 65.2 18.5984 63.9052 18.5984H58.7716V8.57537H63.6217C64.8311 8.57537 65.7607 8.80962 66.4079 9.27654C67.0555 9.74451 67.3794 10.3789 67.3794 11.1813C67.3794 11.6683 67.2638 12.1024 67.0322 12.484C66.7974 12.8683 66.4613 13.1806 66.0607 13.3865C66.6278 13.5683 67.0725 13.8715 67.3942 14.296L67.3926 14.2955ZM61.0543 10.3222V12.6843H63.3376C63.9047 12.6843 64.3345 12.5836 64.6281 12.3838C64.9207 12.1835 65.0675 11.8878 65.0675 11.4966C65.0675 11.1055 64.9207 10.8114 64.6281 10.6158C64.3345 10.4197 63.9052 10.3222 63.3376 10.3222H61.0543ZM65.1025 16.5505C65.4099 16.3507 65.5641 16.0402 65.5641 15.6199C65.5641 14.7894 64.9541 14.3744 63.7346 14.3744H61.0543V16.8516H63.7346C64.3393 16.8516 64.7956 16.7503 65.1025 16.5505ZM72.2485 18.097C71.4211 17.6481 70.7735 17.0302 70.306 16.2421C69.8375 15.4551 69.6043 14.5695 69.6043 13.5864C69.6043 12.6027 69.838 11.7176 70.306 10.9301C70.7735 10.142 71.4211 9.52457 72.2485 9.07514C73.0758 8.62678 74.0044 8.40206 75.0352 8.40206C76.0655 8.40206 76.9915 8.62678 77.8145 9.07514C78.6371 9.52404 79.2848 10.142 79.757 10.9301C80.2297 11.7176 80.4661 12.6027 80.4661 13.5864C80.4661 14.5695 80.2297 15.4551 79.757 16.2426C79.2894 17.0252 78.618 17.6662 77.8145 18.097C76.992 18.5454 76.0655 18.7701 75.0352 18.7701C74.0044 18.7701 73.0758 18.5454 72.2485 18.097ZM76.6226 16.3857C77.092 16.1169 77.4774 15.7227 77.7356 15.2473C78.0053 14.7603 78.14 14.207 78.14 13.5869C78.14 12.9668 78.0053 12.4124 77.7356 11.9259C77.4775 11.4506 77.0921 11.0566 76.6226 10.788C76.1503 10.5156 75.6209 10.38 75.0347 10.38C74.4485 10.38 73.9185 10.5156 73.4463 10.788C72.9769 11.0567 72.5915 11.4507 72.3333 11.9259C72.0635 12.413 71.9289 12.9663 71.9289 13.5869C71.9289 14.207 72.0635 14.7613 72.3333 15.2478C72.5914 15.7232 72.9768 16.1172 73.4463 16.3857C73.9185 16.6576 74.4485 16.7938 75.0347 16.7938C75.6209 16.7938 76.1503 16.6576 76.6226 16.3857ZM91.2924 8.57537V18.5984H89.4067L84.4576 12.5126V18.5984H82.1886V8.57537H84.0887L89.0235 14.6606V8.57537H91.2924ZM93.5895 8.57537H98.0987C99.1767 8.57537 100.129 8.78312 100.956 9.1981C101.783 9.6136 102.426 10.1982 102.885 10.9523C103.343 11.7065 103.572 12.5847 103.572 13.5864C103.572 14.5885 103.343 15.4678 102.885 16.2209C102.426 16.9751 101.783 17.5602 100.956 17.9751C100.129 18.3906 99.1767 18.5984 98.0987 18.5984H93.5895V8.57537ZM97.9858 16.6942C98.9785 16.6942 99.7703 16.4149 100.361 15.8568C100.952 15.2982 101.248 14.5414 101.248 13.5869C101.248 12.6319 100.952 11.875 100.361 11.317C99.7703 10.7589 98.9785 10.4796 97.9858 10.4796H95.887V16.6936H97.9858V16.6942ZM28.0226 18.5984H25.6684L30.0928 8.57537H32.3617L36.8005 18.5984H34.3895L31.2127 10.8522L28.0226 18.5984Z" fill="#FAFAFA"/>
</g>
<defs>
<clipPath id="clip0_1130_2891">
<rect width="106" height="22.83" fill="white"/>
</clipPath>
</defs>
</svg>
