<svg width="71" height="18" viewBox="0 0 71 18" fill="none" xmlns="http://www.w3.org/2000/svg">
<path d="M9.35187 10.3699L8.47547 12.7599C8.44958 12.8262 8.44958 12.8998 8.47547 12.9661L9.98052 17.0795L11.7222 16.0779L9.63292 10.3699C9.58484 10.2374 9.39995 10.2374 9.35187 10.3699Z" fill="#12AAFF"/>
<path d="M11.1051 6.3487C11.057 6.21612 10.8721 6.21612 10.824 6.3487L9.94764 8.73866C9.92175 8.80494 9.92175 8.87859 9.94764 8.94488L12.4141 15.6802L14.1559 14.6786L11.1051 6.3487Z" fill="#12AAFF"/>
<path d="M8.00969 1.11581C8.05406 1.11581 8.09474 1.12685 8.13542 1.14895L14.7769 4.96773C14.8545 5.01192 14.9026 5.09294 14.9026 5.18132V12.8189C14.9026 12.9073 14.8545 12.9883 14.7769 13.0325L8.13542 16.8549C8.09844 16.877 8.05406 16.8881 8.00969 16.8881C7.96531 16.8881 7.92464 16.877 7.88396 16.8549L1.2462 13.0361C1.16854 12.992 1.12047 12.9109 1.12047 12.8226V5.18132C1.12047 5.09294 1.16854 5.01192 1.2462 4.96773L7.88766 1.14895C7.92463 1.12685 7.96901 1.11581 8.00969 1.11581ZM8.00969 0C7.77302 0 7.53635 0.062603 7.32557 0.184126L0.684115 4.00291C0.262552 4.24596 0 4.69522 0 5.18132V12.8189C0 13.305 0.262552 13.7579 0.684115 14.001L7.32557 17.8198C7.53635 17.9413 7.77302 18.0039 8.00969 18.0039C8.24635 18.0039 8.48302 17.9413 8.6938 17.8198L15.3353 14.001C15.7605 13.7579 16.0194 13.3087 16.0194 12.8189V5.18132C16.0194 4.69522 15.7568 4.24227 15.3353 3.99922L8.6975 0.184126C8.48302 0.062603 8.24635 0 8.00969 0Z" fill="#9DCCED"/>
<path d="M3.62061 15.6875L4.23076 14.0229L5.45847 15.0393L4.31212 16.0852L3.62061 15.6875Z" fill="white"/>
<path d="M7.45118 4.63623H5.76863C5.6429 4.63623 5.52826 4.71356 5.48758 4.8314L1.87842 14.6858L3.62014 15.6875L7.5954 4.83509C7.62868 4.73934 7.55842 4.63623 7.45118 4.63623Z" fill="white"/>
<path d="M10.3983 4.63623H8.71574C8.59001 4.63623 8.47538 4.71356 8.4347 4.8314L4.31152 16.0852L6.05324 17.0869L10.5388 4.83877C10.5758 4.73934 10.5018 4.63623 10.3983 4.63623Z" fill="white"/>
<path d="M23.1896 6.6875C23.356 6.6875 23.5003 6.72064 23.6149 6.79061C23.7295 6.86058 23.8442 6.99315 23.9551 7.19201L26.1517 11.1618C26.1739 11.206 26.1776 11.2428 26.1665 11.2722C26.1554 11.3017 26.1221 11.3164 26.0703 11.3164H25.2272C25.1532 11.3164 25.1015 11.287 25.0756 11.2317L24.6059 10.3811H21.4886L21.0301 11.2317C21.0005 11.2907 20.9487 11.3164 20.8784 11.3164H20.0168C19.9577 11.3164 19.9244 11.3017 19.9133 11.2722C19.9022 11.2428 19.9059 11.206 19.9281 11.1618L22.1061 7.19201C22.2171 6.99315 22.3243 6.86058 22.4316 6.79061C22.5388 6.72064 22.6608 6.6875 22.8014 6.6875H23.1896ZM21.8991 9.60775H24.1844L23.1305 7.67074C23.112 7.64128 23.0898 7.62286 23.0565 7.62286H23.0158C22.9863 7.62286 22.9604 7.63759 22.9419 7.67074L21.8991 9.60775Z" fill="white"/>
<path d="M30.9774 6.6875C31.4877 6.6875 31.8501 6.80166 32.072 7.02998C32.2938 7.25829 32.4048 7.59709 32.4048 8.04635V8.42197C32.4048 8.80127 32.3271 9.09956 32.1718 9.32051C32.0165 9.54146 31.765 9.6814 31.4137 9.744L32.549 11.1434C32.5712 11.1655 32.5786 11.1986 32.5675 11.2428C32.5601 11.287 32.5231 11.3091 32.4602 11.3091H31.606C31.5468 11.3091 31.5099 11.3017 31.4877 11.2907C31.4655 11.2759 31.4433 11.2538 31.4211 11.2244L30.3709 9.85079H28.2261V11.1655C28.2261 11.2612 28.178 11.3091 28.0819 11.3091H27.3645C27.261 11.3091 27.2129 11.2612 27.2129 11.1655V6.88636C27.2129 6.75379 27.2795 6.6875 27.4126 6.6875H30.9774ZM28.2298 9.048H30.7703C30.9959 9.048 31.1549 9.00013 31.2473 8.90438C31.3398 8.80864 31.3878 8.66134 31.3878 8.46248V8.18629C31.3878 7.98743 31.3398 7.84013 31.2473 7.74439C31.1549 7.64864 30.9959 7.60077 30.7703 7.60077H28.3149C28.2557 7.60077 28.2298 7.62654 28.2298 7.68178V9.048Z" fill="white"/>
<path d="M37.9555 6.6875C38.4103 6.6875 38.7357 6.77956 38.928 6.96001C39.1203 7.14045 39.2165 7.41296 39.2165 7.77753V8.09423C39.2165 8.46248 39.0759 8.74235 38.7912 8.93384C39.0944 9.1106 39.2497 9.39416 39.2497 9.78451V10.1675C39.2497 10.3443 39.2312 10.5026 39.1906 10.6425C39.1499 10.7825 39.087 10.904 38.9946 11.0034C38.9021 11.1029 38.7838 11.1802 38.6322 11.2317C38.4806 11.2833 38.2957 11.3128 38.0738 11.3128H34.1318C33.9987 11.3128 33.9321 11.2465 33.9321 11.1139V6.88636C33.9321 6.75379 33.9987 6.6875 34.1318 6.6875H37.9555ZM34.9491 8.60978H37.6707C37.8926 8.60978 38.0405 8.57664 38.1219 8.51035C38.2032 8.44407 38.2402 8.34832 38.2402 8.21943V7.9948C38.2402 7.85854 38.2032 7.75912 38.1256 7.69283C38.0479 7.63023 37.9222 7.59708 37.7521 7.59708H35.0378C34.9786 7.59708 34.9528 7.62654 34.9528 7.68178V8.60978H34.9491ZM34.9491 9.33156V10.3148C34.9491 10.3737 34.9786 10.3995 35.0341 10.3995H37.7558C37.9333 10.3995 38.059 10.3663 38.133 10.3037C38.2069 10.2411 38.2476 10.138 38.2476 9.99809V9.74768C38.2476 9.61143 38.2069 9.50832 38.1256 9.43835C38.0442 9.36838 37.8926 9.33156 37.6707 9.33156H34.9491Z" fill="white"/>
<path d="M41.7235 6.6875C41.8196 6.6875 41.8677 6.73537 41.8677 6.83112V11.1655C41.8677 11.2612 41.8196 11.3091 41.7235 11.3091H41.0061C40.9026 11.3091 40.8545 11.2612 40.8545 11.1655V6.8348C40.8545 6.73906 40.9063 6.69118 41.0061 6.69118L41.7235 6.6875Z" fill="white"/>
<path d="M48.6759 6.6875C48.7794 6.6875 48.8275 6.73537 48.8275 6.83112V7.47924C48.8275 7.58235 48.7757 7.63023 48.6759 7.63023H46.5939V11.1655C46.5939 11.2612 46.5459 11.3091 46.4497 11.3091H45.7249C45.6288 11.3091 45.5807 11.2612 45.5807 11.1655V7.63023H43.4988C43.3952 7.63023 43.3472 7.57867 43.3472 7.47924V6.83112C43.3472 6.73537 43.3989 6.6875 43.4988 6.6875H48.6759Z" fill="white"/>
<path d="M53.9232 6.6875C54.4335 6.6875 54.7959 6.80166 55.0178 7.02998C55.2396 7.25829 55.3506 7.59709 55.3506 8.04635V8.42197C55.3506 8.80127 55.2729 9.09956 55.1176 9.32051C54.9623 9.54146 54.7108 9.6814 54.3595 9.744L55.4948 11.1434C55.517 11.1655 55.5244 11.1986 55.5133 11.2428C55.5059 11.287 55.4689 11.3091 55.406 11.3091H54.5518C54.4926 11.3091 54.4557 11.3017 54.4335 11.2907C54.4113 11.2759 54.3891 11.2538 54.3669 11.2244L53.3167 9.85079H51.1719V11.1655C51.1719 11.2612 51.1238 11.3091 51.0277 11.3091H50.3103C50.2068 11.3091 50.1587 11.2612 50.1587 11.1655V6.88636C50.1587 6.75379 50.2253 6.6875 50.3584 6.6875H53.9232ZM51.1793 9.048H53.7198C53.9454 9.048 54.1044 9.00013 54.1968 8.90438C54.2893 8.80864 54.3373 8.66134 54.3373 8.46248V8.18629C54.3373 7.98743 54.2893 7.84013 54.1968 7.74439C54.1044 7.64864 53.9454 7.60077 53.7198 7.60077H51.2644C51.2052 7.60077 51.1793 7.62654 51.1793 7.68178V9.048Z" fill="white"/>
<path d="M57.6541 6.6875C57.7502 6.6875 57.7983 6.73537 57.7983 6.83112V9.46781C57.7983 9.64457 57.8131 9.79187 57.8427 9.90603C57.8723 10.0239 57.9203 10.1159 57.9869 10.1822C58.0535 10.2522 58.1422 10.3001 58.2569 10.3258C58.3715 10.3553 58.512 10.37 58.6858 10.37H60.5237C60.6975 10.37 60.838 10.3553 60.9526 10.3258C61.0673 10.2964 61.156 10.2485 61.2226 10.1822C61.2891 10.1123 61.3372 10.0202 61.3631 9.90603C61.389 9.78819 61.4038 9.64457 61.4038 9.46781V6.83112C61.4038 6.73537 61.4519 6.6875 61.548 6.6875H62.2728C62.3689 6.6875 62.417 6.73537 62.417 6.83112V9.56724C62.417 9.88393 62.3837 10.1528 62.3172 10.3774C62.2506 10.5983 62.1434 10.7788 61.9954 10.9187C61.8475 11.0587 61.6552 11.1581 61.4186 11.2207C61.1819 11.2833 60.8972 11.3128 60.5607 11.3128H58.6488C58.3123 11.3128 58.0276 11.2833 57.7946 11.2207C57.5616 11.1581 57.3694 11.0587 57.2214 10.9187C57.0735 10.7788 56.9663 10.5983 56.896 10.3774C56.8258 10.1564 56.7925 9.88393 56.7925 9.56724V6.83112C56.7925 6.73537 56.8443 6.6875 56.9441 6.6875H57.6541Z" fill="white"/>
<path d="M65.2684 6.6875C65.3645 6.6875 65.4496 6.69487 65.5199 6.70591C65.5901 6.72064 65.653 6.74274 65.7047 6.78325C65.7565 6.82007 65.8046 6.87163 65.849 6.93423C65.8896 6.99683 65.934 7.08153 65.9784 7.18833L67.3577 10.359C67.3762 10.3995 67.4058 10.4179 67.4502 10.4179H67.5315C67.5759 10.4179 67.6055 10.3995 67.624 10.359L69.0033 7.18833C69.0477 7.08153 69.092 6.99683 69.1327 6.93423C69.1734 6.87163 69.2215 6.82007 69.2769 6.78325C69.3287 6.74642 69.3916 6.72064 69.4581 6.70591C69.5284 6.69118 69.6097 6.6875 69.7059 6.6875H70.4159C70.6452 6.6875 70.8005 6.73906 70.8818 6.84217C70.9632 6.94528 71.0002 7.12204 71.0002 7.37245V11.1655C71.0002 11.2612 70.9484 11.3091 70.8485 11.3091H70.1718C70.0757 11.3091 70.0276 11.2612 70.0276 11.1655V7.71493C70.0276 7.67074 70.0091 7.64864 69.9758 7.64864H69.9167C69.8723 7.64864 69.8427 7.66705 69.8316 7.7002L68.493 10.6609C68.4412 10.7788 68.3857 10.8819 68.3303 10.9629C68.2748 11.0439 68.2156 11.1102 68.1528 11.1655C68.0899 11.217 68.0159 11.2575 67.9346 11.2796C67.8532 11.3017 67.7571 11.3128 67.6462 11.3128H67.3281C67.2172 11.3128 67.121 11.3017 67.0397 11.2796C66.9583 11.2575 66.8844 11.2207 66.8215 11.1655C66.7587 11.1139 66.6958 11.0439 66.644 10.9629C66.5885 10.8819 66.5331 10.7825 66.4813 10.6609L65.1427 7.7002C65.1279 7.66337 65.102 7.64864 65.0576 7.64864H64.9984C64.9615 7.64864 64.9467 7.67074 64.9467 7.71493V11.1655C64.9467 11.2612 64.8986 11.3091 64.8025 11.3091H64.1257C64.0222 11.3091 63.9741 11.2612 63.9741 11.1655V7.37245C63.9741 7.12204 64.0148 6.94528 64.0925 6.84217C64.1738 6.73906 64.3291 6.6875 64.5621 6.6875H65.2684Z" fill="white"/>
</svg>
