<svg width="95" height="24" viewBox="0 0 95 24" fill="none" xmlns="http://www.w3.org/2000/svg">
<g clip-path="url(#clip0_1140_4804)">
<path d="M30.8774 19.2061V8.1189H33.2081V12.3268C33.4433 11.6357 34.3657 11.1494 35.5556 11.1494C36.6667 11.1494 37.606 11.5423 38.3411 12.3424C39.0917 13.1282 39.4677 14.1008 39.4677 15.2471C39.4677 16.3934 39.0917 17.3673 38.3411 18.1687C37.606 18.9545 36.6667 19.3461 35.5556 19.3461C34.367 19.3461 33.4433 18.8585 33.2081 18.1687V19.2048H30.8774V19.2061ZM36.5569 16.6619C36.9483 16.2689 37.1357 15.7982 37.1357 15.2484C37.1357 14.6986 36.9483 14.2279 36.5569 13.8505C36.1654 13.4576 35.6964 13.2696 35.1331 13.2696C34.5698 13.2696 34.0685 13.4576 33.6629 13.8505C33.2714 14.2279 33.0686 14.6986 33.0686 15.2484C33.0686 15.7982 33.2714 16.2689 33.6629 16.6619C34.0698 17.0392 34.5543 17.2272 35.1331 17.2272C35.7119 17.2272 36.1654 17.0392 36.5569 16.6619Z" fill="white"/>
<path d="M40.2715 19.2061V8.1189H42.6022V19.2061H40.2715Z" fill="white"/>
<path d="M43.8892 11.2908H46.2521V15.8138C46.2521 16.8188 46.831 17.274 47.6914 17.274C48.5519 17.274 49.1306 16.8188 49.1306 15.8138V11.2908H51.4936V16.0174C51.4936 17.1171 51.1332 17.9651 50.3981 18.546C49.6784 19.127 48.7702 19.4252 47.6914 19.4252C46.6126 19.4252 45.7044 19.127 44.9693 18.546C44.2496 17.9651 43.8892 17.1171 43.8892 16.0174V11.2908Z" fill="white"/>
<path d="M55.2829 19.6768L52.0439 11.2908H54.3281L55.7364 15.0915L57.8488 11.3232L59.9611 15.0915L61.3693 11.2908H63.6535L60.4146 19.6768L57.8488 15.1227L55.2829 19.6768Z" fill="white"/>
<path d="M64.2812 19.2061V8.1189H66.6118V12.249C66.9246 11.5578 67.7699 11.1182 68.8188 11.1182C70.6806 11.1182 71.745 12.3437 71.745 14.4003V19.2061H69.414V14.683C69.414 13.7571 68.9299 13.1905 68.0691 13.1905C67.2089 13.1905 66.6144 13.8336 66.6144 14.7608V19.2048H64.2838L64.2812 19.2061Z" fill="white"/>
<path d="M78.976 12.3268V11.2907H81.307V19.206H78.976V18.1699C78.7407 18.8611 77.8185 19.3473 76.6288 19.3473C75.5172 19.3473 74.5782 18.9544 73.8279 18.1699C73.0924 17.3685 72.7163 16.3946 72.7163 15.2483C72.7163 14.102 73.0924 13.1282 73.8279 12.3436C74.5782 11.5422 75.5172 11.1506 76.6288 11.1506C77.8172 11.1506 78.7407 11.6369 78.976 12.3281V12.3268ZM78.5074 16.6605C78.9139 16.2676 79.1169 15.7968 79.1169 15.247C79.1169 14.6973 78.9139 14.2265 78.5074 13.8491C78.1158 13.4563 77.6311 13.2682 77.0521 13.2682C76.4737 13.2682 76.02 13.4563 75.6284 13.8491C75.2374 14.2265 75.0499 14.6973 75.0499 15.247C75.0499 15.7968 75.2374 16.2676 75.6284 16.6605C76.02 17.0378 76.4892 17.2259 77.0521 17.2259C77.6156 17.2259 78.1171 17.0378 78.5074 16.6605Z" fill="white"/>
<path d="M82.855 19.2061V8.1189H85.1854V19.2061H82.855Z" fill="white"/>
<path d="M86.4062 15.2329C86.4062 13.9919 86.7979 13.0025 87.5792 12.2491C88.378 11.4802 89.379 11.1028 90.583 11.1028C91.7876 11.1028 92.7267 11.4957 93.4621 12.2647C94.1969 13.0336 94.573 13.9764 94.573 15.1072C94.573 15.3743 94.5575 15.6414 94.5265 15.8761H88.7373C88.7838 16.8188 89.582 17.4153 90.8183 17.4153C91.9453 17.4153 92.8844 17.1638 93.6191 16.6464V18.6874C92.8688 19.1737 91.8988 19.4097 90.6929 19.4097C89.4101 19.4097 88.378 19.0324 87.5792 18.2945C86.7966 17.5411 86.4062 16.5517 86.4062 15.3107V15.2316V15.2329ZM92.2265 14.3537C92.2265 13.647 91.5072 13.0505 90.583 13.0505C90.099 13.0505 89.6763 13.1763 89.3157 13.4279C88.9551 13.6794 88.7683 13.9932 88.7528 14.355H92.2265V14.3537Z" fill="white"/>
<path d="M13.351 20.8684C12.4686 20.8684 12.2799 20.8697 12.0835 20.871C11.4389 20.8749 10.7723 20.8814 10.0978 20.8762C7.73613 20.8956 4.83433 20.7102 2.59019 19.8932C2.54885 19.8777 2.51531 19.9296 2.54502 19.962C2.94424 20.3847 3.37445 20.7789 3.83181 21.1407C5.83435 22.7202 8.36009 23.6628 11.1081 23.6628C12.674 23.6628 14.1688 23.3568 15.5318 22.8018C16.3922 22.453 17.2023 22.0043 17.9452 21.4727C16.4194 21.1628 14.9155 20.8684 13.351 20.8684Z" fill="white"/>
<path d="M9.91321 19.1269C14.1353 19.1269 16.7787 16.9134 17.9221 14.1448C18.3549 13.0945 18.5771 11.9689 18.5939 10.8511C18.6094 9.73329 18.4208 8.62592 18.028 7.61837C17.3898 5.97408 16.1973 4.59174 14.4674 3.86816C14.9841 4.59174 15.3537 5.38666 15.5837 6.21008C15.9583 7.55221 15.9634 8.96957 15.6366 10.2844C15.3071 11.6097 14.6418 12.8377 13.6819 13.7883C12.5139 14.9436 10.9209 15.6841 8.97652 15.6905C6.09546 15.7009 3.14976 15.71 0.264814 15.71C0.140785 15.71 0.058143 15.8423 0.114989 15.9525C1.60204 18.8689 6.83967 19.0945 9.91456 19.1269H9.91321Z" fill="white"/>
<path d="M13.351 20.8684C12.4686 20.8684 12.2799 20.8697 12.0835 20.871C11.4389 20.8749 10.7723 20.8814 10.0978 20.8762C7.73613 20.8956 4.83433 20.7102 2.59019 19.8932C2.54885 19.8777 2.51531 19.9296 2.54502 19.962C2.94424 20.3847 3.37445 20.7789 3.83181 21.1407C5.83435 22.7202 8.36009 23.6628 11.1081 23.6628C12.674 23.6628 14.1688 23.3568 15.5318 22.8018C16.3922 22.453 17.2023 22.0043 17.9452 21.4727C16.4194 21.1628 14.9155 20.8684 13.351 20.8684Z" fill="white"/>
<path d="M9.91321 19.1269C14.1353 19.1269 16.7787 16.9134 17.9221 14.1448C18.3549 13.0945 18.5771 11.9689 18.5939 10.8511C18.6094 9.73329 18.4208 8.62592 18.028 7.61837C17.3898 5.97408 16.1973 4.59174 14.4674 3.86816C14.9841 4.59174 15.3537 5.38666 15.5837 6.21008C15.9583 7.55221 15.9634 8.96957 15.6366 10.2844C15.3071 11.6097 14.6418 12.8377 13.6819 13.7883C12.5139 14.9436 10.9209 15.6841 8.97652 15.6905C6.09546 15.7009 3.14976 15.71 0.264814 15.71C0.140785 15.71 0.058143 15.8423 0.114989 15.9525C1.60204 18.8689 6.83967 19.0945 9.91456 19.1269H9.91321Z" fill="white"/>
<path d="M24.6362 20.7725L21.697 17.095L21.7564 16.9537C25.5096 9.23027 19.7952 -0.0284625 11.1494 6.57634e-05C3.04489 0.134927 0.346015 6.88314 0.00493738 7.83885C-0.0144421 7.89334 0.0255911 7.95036 0.0837292 7.95036C2.27619 7.95036 6.65982 8.17991 7.04099 5.34004C7.41304 8.18381 11.807 7.95684 13.9994 7.95555C14.0576 7.95555 14.0977 7.89723 14.0783 7.84275C13.2372 5.48658 11.6584 3.4494 9.5939 2.04373C15.0085 1.16973 20.0756 5.3958 20.3288 10.7734C20.3288 10.7955 20.3288 10.8174 20.3288 10.8395C20.5187 14.3563 18.6802 17.6072 15.8676 19.3163L24.5548 20.9113C24.631 20.9256 24.684 20.8361 24.6349 20.7764L24.6362 20.7725Z" fill="white"/>
</g>
<defs>
<clipPath id="clip0_1140_4804">
<rect width="95" height="24" fill="white"/>
</clipPath>
</defs>
</svg>
