<svg width="80" height="13" viewBox="0 0 80 13" fill="none" xmlns="http://www.w3.org/2000/svg">
<g clip-path="url(#clip0_1140_4782)">
<path d="M13.873 2.652V4.16H13.3965C11.9127 4.16 10.9586 5.20059 10.9586 6.76177V10.2995H9.31592V2.756H10.9586V4.68118C11.2241 3.53659 11.966 2.6 13.3965 2.6C13.5553 2.6 13.7141 2.6 13.873 2.652ZM22.8857 2.75186L19.6738 10.2948L18.4626 13H16.8827L18.1467 10.1908L14.987 2.75127H16.6196L18.8839 8.31764L21.201 2.69986H22.8857V2.75186ZM32.3038 6.5C32.3038 9.1 30.4087 10.4 28.619 10.4C27.2507 10.4 26.251 9.672 25.9879 9.048H25.9346V13H24.3038V2.756H25.9352V3.952H25.9879C26.251 3.38 27.2507 2.6 28.619 2.6C30.4614 2.6 32.3038 3.9 32.3038 6.5ZM30.7245 6.5C30.7245 4.888 29.5138 4.056 28.3038 4.056C27.0931 4.056 25.8824 4.888 25.8824 6.5C25.8824 8.112 27.0931 8.944 28.3038 8.944C29.5666 8.944 30.7245 8.112 30.7245 6.5ZM36.0466 4.01818V8.11968C36.0466 8.53509 36.257 8.8985 36.8869 8.8985C37.0445 8.8985 37.307 8.8465 37.5695 8.7425V9.98873C37.307 10.1961 36.7814 10.3001 36.3618 10.3001C35.2063 10.3001 34.3666 9.72932 34.3666 8.37968V4.01818H33.3153V2.72114H34.366V0.800091H35.9932V2.72055H37.5162V4.01877H36.046L36.0466 4.01818ZM38.8857 6.5C38.8857 3.952 40.8738 2.6 42.8087 2.6C44.7968 2.6 46.7849 3.952 46.7849 6.5C46.7849 9.048 44.7968 10.4 42.8087 10.4C40.8738 10.4 38.8857 9.048 38.8857 6.5ZM45.163 6.5C45.163 4.94 44.0644 4.056 42.8092 4.056C41.5535 4.056 40.4555 4.94 40.4555 6.5C40.4555 8.06 41.6057 8.944 42.8092 8.944C44.0122 8.944 45.163 8.06 45.163 6.5ZM52.9621 2.652V4.16H52.4851C51.0012 4.16 50.0472 5.20059 50.0472 6.76177V10.2995H48.4051V2.756H50.0478V4.68118C50.3127 3.53659 51.054 2.6 52.4851 2.6C52.6439 2.6 52.8027 2.6 52.9621 2.652ZM70.7844 5.876V10.2995H69.1559V6.13659C69.1559 4.83541 68.4205 4.10682 67.3171 4.10682C66.2137 4.10682 65.4255 4.83541 65.4255 6.13659V10.2995H63.7971V2.80564H65.4255V3.95082C65.8463 3.27423 66.6338 2.70164 67.8421 2.70164C69.4712 2.64964 70.7844 3.63823 70.7844 5.876ZM75.4048 7.23095L74.3476 8.37554V10.3001H72.7085V0H74.3476V6.29436L77.5725 2.75718H79.5287L76.4092 6.13836L79.8984 10.3001H78.0484L75.4048 7.23095ZM62.177 6.44032V2.55686H60.5455V3.76055H60.4928C60.2297 3.13241 59.2294 2.40027 57.8617 2.40027C56.0721 2.40027 54.177 3.70795 54.177 6.32391C54.177 8.93986 56.0715 10.2475 57.8611 10.3001C58.0513 10.3001 58.2344 10.2848 58.4092 10.257C58.7387 10.0555 59.1026 9.73345 59.537 9.24477C59.278 9.20577 59.0688 9.178 58.891 9.15377C58.2658 9.06986 58.0087 9.035 57.2567 8.76791C56.8738 8.632 56.1971 8.02809 55.9944 7.46082C55.8433 7.13877 55.7556 6.76 55.7556 6.32391C55.7556 4.70186 56.9663 3.86514 58.177 3.86514C59.3876 3.86514 60.5983 4.70186 60.5983 6.32332L60.5977 6.37532C61.1915 6.39541 61.7467 6.41964 62.177 6.44032Z" fill="white"/>
<path d="M59.6657 10.8993L59.3469 10.5908L60.7288 9.09818L59.2402 7.70836L59.5596 7.3999L61.367 9.09818L59.6657 10.8993Z" fill="white" stroke="white" stroke-width="1.196" stroke-miterlimit="10"/>
<path d="M3.28415 8.88146C2.91319 8.74082 2.52978 8.52987 2.256 8.21669C1.84759 7.7379 1.62437 7.12925 1.62667 6.50069C1.62667 4.94069 2.72889 4.0561 3.98756 4.0561C4.61748 4.0561 5.24681 4.2641 5.66696 4.7321C5.79141 4.85619 5.89215 4.98442 5.97274 5.11501L6.26785 5.00392C6.67674 4.85028 7.08504 4.69605 7.49393 4.53887C6.78281 3.26428 5.38548 2.6001 3.98756 2.6001C1.99407 2.6001 0 3.9521 0 6.5001C0 9.00733 1.92948 10.357 3.89037 10.4001C4.23407 10.1106 4.62519 9.7176 4.91674 9.42392L5.11881 9.22064C4.44326 9.22064 3.7677 9.10778 3.28415 8.88146Z" fill="white"/>
<path d="M5.18525 11.0996L4.86584 10.7911L6.24836 9.29847L4.75977 7.90865L5.07858 7.59961L6.88599 9.29847L5.18525 11.0996Z" fill="white" stroke="white" stroke-width="1.196" stroke-miterlimit="10"/>
</g>
<defs>
<clipPath id="clip0_1140_4782">
<rect width="80" height="13" fill="white"/>
</clipPath>
</defs>
</svg>
