<svg width="72" height="23" viewBox="0 0 72 23" fill="none" xmlns="http://www.w3.org/2000/svg">
<g clip-path="url(#clip0_1140_4717)">
<mask id="mask0_1140_4717" style="mask-type:luminance" maskUnits="userSpaceOnUse" x="0" y="1" width="72" height="20">
<path d="M0.467773 1.2854H71.5328V20.8245H0.467773V1.2854Z" fill="white"/>
</mask>
<g mask="url(#mask0_1140_4717)">
<mask id="mask1_1140_4717" style="mask-type:luminance" maskUnits="userSpaceOnUse" x="0" y="1" width="72" height="20">
<path d="M0.467773 1.01807H71.5328V20.5571H0.467773V1.01807Z" fill="white"/>
</mask>
<g mask="url(#mask1_1140_4717)">
<mask id="mask2_1140_4717" style="mask-type:luminance" maskUnits="userSpaceOnUse" x="25" y="1" width="47" height="20">
<path d="M71.5329 1.01807H25.3408V20.5571H71.5329V1.01807Z" fill="white"/>
</mask>
<g mask="url(#mask2_1140_4717)">
<path d="M12.7788 1.01807L4.38721 5.84627V15.5006L12.7788 20.3278L21.1709 15.5006V5.84627L12.7788 1.01807ZM13.4685 14.4085H8.52566V9.92583H10.5376V12.6844H13.469C14.6755 12.6844 15.3657 12.052 15.3657 10.6154C15.3657 9.17871 14.676 8.54678 13.4685 8.54678H8.52566V6.82271H13.4685C16.17 6.82271 17.4346 8.37401 17.4346 10.6154C17.4346 12.7991 16.17 14.4085 13.4685 14.4085ZM34.7933 14.1787L35.2531 12.9714H38.4144L38.8747 14.1787H40.9437L37.897 6.59287H35.7129L32.7244 14.1787H34.7933ZM36.6329 9.17871C36.69 9.00646 36.7476 8.83421 36.8052 8.4316C36.8628 8.8337 36.9204 9.00646 36.9775 9.17871L37.7824 11.3625H35.8281L36.6329 9.17871ZM25.4246 6.59236V14.1787H28.4707C31.1722 14.1787 32.4369 12.6268 32.4369 10.3855C32.4369 8.14417 31.1722 6.59287 28.4707 6.59287L25.4246 6.59236ZM30.3674 10.3855C30.3674 11.8221 29.6782 12.4546 28.4707 12.4546H27.436V8.31694H28.4707C29.6777 8.31694 30.3674 8.94887 30.3674 10.3855ZM40.4268 6.59287V8.37401H42.5529V14.1787H44.5648V8.37401H46.6918V6.59287H40.4268ZM48.3581 14.1787L48.8179 12.9714H51.9792L52.439 14.1787H54.3933L51.4618 6.59287H49.2777L46.2886 14.1787H48.3581ZM50.1396 9.17871C50.1972 9.00646 50.2548 8.83421 50.3124 8.4316C50.3695 8.8337 50.4271 9.00646 50.4847 9.17871L51.2896 11.3625H49.3353L50.1396 9.17871Z" fill="#EAEEEF"/>
<path d="M61.9811 6.5918L59.6817 10.1551L57.3828 6.5918H55.4856V14.1781H57.4975V10.1551L59.1072 12.6263H60.2567L61.8659 10.1551V14.1781H63.8777V6.5918H61.9811ZM65.6021 6.5918V14.1781H67.614V6.5918H65.6021ZM8.52569 14.4074V9.92527H10.5376V12.6839H13.469C14.6755 12.6839 15.3657 12.0514 15.3657 10.6148C15.3657 9.17815 14.676 8.54622 13.4685 8.54622H8.52569V6.82215H4.38672V14.4074H8.52569Z" fill="#EAEEEF"/>
</g>
<mask id="mask3_1140_4717" style="mask-type:luminance" maskUnits="userSpaceOnUse" x="0" y="1" width="22" height="20">
<path d="M21.7875 1.01807H0.468262V20.5571H21.7875V1.01807Z" fill="white"/>
</mask>
<g mask="url(#mask3_1140_4717)">
<path d="M12.7788 1.01807L4.38672 5.84627V15.5006L12.7788 20.3278L21.1709 15.5006V5.84627L12.7788 1.01807ZM13.4685 14.4085H8.52518V9.92583H10.5371V12.6844H13.4685C14.6755 12.6844 15.3652 12.052 15.3652 10.6154C15.3652 9.17871 14.6755 8.54678 13.4685 8.54678H8.52518V6.82271H13.4685C16.17 6.82271 17.4347 8.37401 17.4347 10.6154C17.4347 12.7991 16.1695 14.4085 13.4685 14.4085ZM34.7933 14.1787L35.2531 12.9714H38.4144L38.8742 14.1787H40.9432L37.8976 6.59287H35.7134L32.7239 14.1787H34.7933ZM36.6324 9.17871C36.69 9.00646 36.7476 8.83421 36.8047 8.4316C36.8623 8.8337 36.9199 9.00646 36.9775 9.17871L37.7824 11.3625H35.8281L36.6324 9.17871ZM25.4241 6.59236V14.1787H28.4702C31.1717 14.1787 32.4364 12.6268 32.4364 10.3855C32.4364 8.14417 31.1717 6.59287 28.4702 6.59287L25.4241 6.59236ZM30.3674 10.3855C30.3674 11.8221 29.6777 12.4546 28.4702 12.4546H27.436V8.31694H28.4702C29.6777 8.31694 30.3674 8.94887 30.3674 10.3855ZM40.4263 6.59287V8.37401H42.5529V14.1787H44.5648V8.37401H46.6914V6.59287H40.4263ZM48.3581 14.1787L48.8179 12.9714H51.9792L52.439 14.1787H54.3933L51.4619 6.59287H49.2777L46.2892 14.1787H48.3581ZM50.1402 9.17871C50.1978 9.00646 50.2548 8.83421 50.3124 8.4316C50.37 8.8337 50.4276 9.00646 50.4847 9.17871L51.2896 11.3625H49.3353L50.1402 9.17871Z" fill="#EAEEEF"/>
<path d="M61.9805 6.5918L59.6817 10.1551L57.3823 6.5918H55.4856V14.1781H57.4975V10.1551L59.1067 12.6263H60.2561L61.8659 10.1551V14.1781H63.8777V6.5918H61.9805ZM65.6021 6.5918V14.1781H67.6135V6.5918H65.6021ZM8.52518 14.4074V9.92527H10.5371V12.6839H13.4685C14.6755 12.6839 15.3652 12.0514 15.3652 10.6148C15.3652 9.17815 14.6755 8.54622 13.4685 8.54622H8.52518V6.82215H4.38672V14.4074H8.52518Z" fill="#08CE48"/>
</g>
</g>
</g>
</g>
<defs>
<clipPath id="clip0_1140_4717">
<rect width="72" height="22.11" fill="white"/>
</clipPath>
</defs>
</svg>
