<svg width="95" height="19" viewBox="0 0 95 19" fill="none" xmlns="http://www.w3.org/2000/svg">
<g clip-path="url(#clip0_1140_4747)">
<g clip-path="url(#clip1_1140_4747)">
<path fill-rule="evenodd" clip-rule="evenodd" d="M9.16555 6.98155L9.1736 6.99718C9.41311 6.99718 9.59103 6.73046 9.63083 6.39291C9.4342 6.45853 9.24088 6.52746 9.04875 6.59591C9.02506 6.63642 9.00137 6.67716 8.97412 6.71293C8.88599 6.80768 9.04472 6.98084 9.16555 6.98084V6.98155ZM20.5302 7.20492C20.0275 5.17466 16.0904 4.66965 11.3785 5.87842C11.2101 6.00444 11.0179 6.06129 10.8694 6.08497C10.4778 6.1423 10.3375 6.16812 10.2994 6.42063C10.2622 6.6729 10.9305 6.79749 11.3804 6.4699C11.6829 6.25079 11.9009 5.7749 12.1695 5.74174C12.5183 5.70053 12.5815 6.61415 12.382 7.06422C12.1819 7.51428 11.5086 7.80469 11.2555 7.57729C11.1686 7.49462 11.1809 7.44866 11.1686 7.25561C11.1565 7.06208 10.7114 7.09809 10.7114 7.39181C10.7249 7.59671 10.7154 7.80469 10.6815 8.00769C10.5567 8.65317 9.397 8.75621 9.09637 8.72234C8.79786 8.68847 8.43137 8.45372 8.60976 8.30734C9.0189 7.9859 8.76375 7.23406 8.17219 6.92825C7.98622 7.00263 7.80238 7.07985 7.61972 7.15897C7.63855 7.20494 7.66808 7.24576 7.70587 7.27802C7.74366 7.31028 7.7886 7.33305 7.83697 7.34444C7.963 7.38242 8.07387 7.45914 8.15382 7.5637C8.23377 7.66826 8.27874 7.79535 8.28235 7.92691C8.28574 8.05857 8.24736 8.18791 8.17272 8.29642C8.09807 8.40493 7.99099 8.48702 7.86682 8.53095C7.09308 8.95732 6.56856 8.16734 6.52308 7.99419C6.48588 7.85206 6.43021 7.7964 6.29186 7.781C2.70223 9.60067 0.411805 11.9756 0.842977 13.7401C1.40137 16.01 6.262 16.3753 11.6967 14.567C17.132 12.7594 21.0901 9.47702 20.5302 7.20492Z" fill="white"/>
<path fill-rule="evenodd" clip-rule="evenodd" d="M9.22297 5.24855C9.16449 5.25928 9.1115 5.28986 9.07296 5.33513C9.03441 5.38041 9.01267 5.43759 9.01141 5.49703C9.01876 5.64176 9.1891 5.74196 9.1891 5.99305C9.21151 6.25176 9.13441 6.50929 8.97351 6.71315C8.88656 6.8079 9.04458 6.98176 9.1654 6.98176L9.17346 6.9974C9.44827 6.9974 9.64254 6.64611 9.63827 6.23537C9.67239 5.73983 9.47623 5.16398 9.22297 5.24713V5.24855ZM10.8536 5.24452C10.8901 5.21989 10.919 5.18578 10.9372 5.14574C10.9504 5.1157 10.9571 5.08321 10.9568 5.05041C10.9566 5.0176 10.9494 4.98522 10.9358 4.95539C10.9221 4.92556 10.9023 4.89894 10.8777 4.87729C10.853 4.85564 10.8241 4.83944 10.7927 4.82975C10.6664 4.85779 10.5358 4.86052 10.4085 4.83781C10.282 4.81412 10.1609 4.76674 10.0521 4.69758C9.86973 4.55356 9.96141 4.07838 9.96141 4.07838C9.96876 3.92015 9.79842 3.85904 9.7373 3.85501C9.67428 3.85099 9.52977 3.8254 9.4388 4.06228C9.39284 4.2423 9.40089 4.44933 9.4504 4.62865C9.49984 4.80814 9.59446 4.97198 9.72522 5.10453C9.88077 5.23309 10.0698 5.31453 10.2701 5.33927C10.4704 5.36482 10.6738 5.33192 10.8557 5.24452H10.8536ZM19.4273 15.7916C19.0118 14.5639 17.0322 12.076 14.7901 10.3537C14.3788 9.91096 14.2914 9.27755 14.1177 8.66973C13.8779 8.01875 13.7637 7.32824 13.7811 6.63474C13.8872 6.14369 14.0259 5.66026 14.1964 5.18767C14.472 4.18221 14.6967 3.16345 14.8694 2.1353C14.9675 1.57711 14.9534 1.00499 14.828 0.452302C14.6401 -0.300723 11.7759 1.89108 11.2438 2.25042C10.6886 1.97238 10.0914 1.7876 9.47623 1.70348C8.24781 1.58078 7.00761 1.74081 5.85059 2.1713C4.84468 1.47584 3.17211 0.0782768 2.60709 0.293833H2.61846C2.09797 0.509152 2.34294 1.57083 2.44812 2.21252C2.70138 3.73468 3.33842 5.47926 3.50473 6.86877C4.10458 11.8905 4.32443 14.8562 9.57312 17.941C10.1529 18.2355 10.7602 18.4722 11.3864 18.6476C12.6742 18.8175 13.1533 18.2016 13.1533 17.7873C13.1023 17.3381 12.8951 16.921 12.5679 16.6091C12.1443 16.1367 11.4535 15.5919 11.1327 15.2035C11.9737 15.1044 12.8073 14.9507 13.6283 14.7432C13.8963 14.6444 14.1757 14.5794 14.4598 14.5497C14.6015 14.5686 14.733 14.634 14.8334 14.7359C15.1877 15.0299 15.5252 15.3435 15.8445 15.6751C16.2589 16.1405 16.7098 16.5721 17.1928 16.9658C17.4711 17.1942 17.8184 17.322 18.1784 17.3284C18.5384 17.3349 18.89 17.2198 19.1764 17.0016C19.344 16.8541 19.4592 16.6562 19.5049 16.4377C19.5505 16.2191 19.524 15.9917 19.4294 15.7895L19.4273 15.7916ZM12.384 7.06443C12.1836 7.51449 11.5106 7.8049 11.2575 7.57798C11.1706 7.49483 11.1827 7.44959 11.1706 7.25583C11.1583 7.0623 10.7134 7.0983 10.7134 7.39274C10.7272 7.5985 10.7171 7.80517 10.6833 8.00861C10.5584 8.65339 9.39876 8.75643 9.09836 8.72256C8.79986 8.68868 8.43312 8.45441 8.61104 8.30826C9.04529 7.96858 8.73589 7.14971 8.07492 6.88109C7.83754 6.79037 7.74656 6.75649 7.65891 6.84366C7.62661 6.88578 7.60558 6.93543 7.59779 6.98792C7.59068 7.03956 7.59518 7.09215 7.61153 7.14165C7.62977 7.19092 7.65891 7.2364 7.69918 7.27004C7.73827 7.30533 7.78589 7.33115 7.83754 7.34323C7.96426 7.38022 8.07593 7.45654 8.15642 7.56116C8.23691 7.66578 8.28204 7.79328 8.28529 7.92524C8.28866 8.05693 8.24963 8.18622 8.17395 8.29405C8.09932 8.40301 7.992 8.48544 7.86739 8.52974C7.09365 8.95611 6.56842 8.16614 6.52365 7.99227C6.47769 7.81912 6.40638 7.77364 6.18653 7.77364C5.13395 7.73976 5.15171 7.32286 5.04653 7.01706C4.94205 6.71101 5.20928 6.56699 5.25477 6.60276C5.41137 6.73708 5.60672 6.81798 5.81245 6.83372C6.0323 6.79629 6.01287 6.93249 6.22846 7.21058C6.59496 7.6822 6.91123 7.0623 6.70346 6.9467C6.24623 6.68543 6.36705 6.26711 6.5291 6.17639C6.56803 6.16116 6.60272 6.13678 6.63025 6.10532C6.65708 6.0732 6.67591 6.03518 6.68522 5.99438C6.69453 5.95358 6.69404 5.91116 6.6838 5.87058C6.67266 5.83032 6.65221 5.79324 6.6241 5.76233C6.56819 5.70886 6.49381 5.67902 6.41645 5.67902C6.33908 5.67902 6.2647 5.70886 6.2088 5.76233C5.92925 6.01887 6.10361 6.33628 5.87239 6.35783C5.52745 6.38365 4.93992 5.96936 5.18156 5.14243C5.42321 4.31526 6.42794 4.31526 6.42794 4.31526L6.40235 4.60093C6.41978 4.7769 6.47364 4.94732 6.56052 5.10135C6.64739 5.25538 6.76537 5.38965 6.90696 5.49561C7.53477 5.85092 8.18342 5.67705 8.23294 5.43805C8.26279 5.28976 8.05928 5.11661 7.73424 5.13627C7.53923 5.15777 7.34289 5.1097 7.17988 5.00054C7.01696 4.89159 6.89794 4.72844 6.84395 4.54005C6.81859 4.31473 6.87308 4.08765 6.99794 3.89836C7.12279 3.70886 7.30876 3.56674 7.52719 3.4978C7.69193 3.43708 7.87294 3.43711 8.03766 3.4979C8.20238 3.55869 8.34 3.67625 8.42578 3.82943C8.44876 3.87278 8.45492 3.92418 8.4869 3.96137C8.53364 4.01966 8.6003 4.05861 8.67404 4.07073C8.74777 4.08284 8.82339 4.06726 8.88633 4.02698C8.88633 4.02698 9.28599 3.41514 9.76691 3.4483C9.90481 3.45863 10.0383 3.50132 10.1566 3.57289C10.2751 3.64396 10.3746 3.74487 10.4457 3.8633C10.4457 3.8633 11.5482 3.64396 11.7302 4.61112C11.942 5.72088 11.2611 6.02621 10.869 6.08377C10.4774 6.14062 10.3371 6.1662 10.299 6.41942C10.2618 6.67193 10.9301 6.79629 11.38 6.46893C11.6825 6.24958 11.9005 5.7737 12.1699 5.73983C12.5181 5.69932 12.5811 6.61295 12.3817 7.0623L12.3836 7.06443H12.384Z" fill="white"/>
<path d="M9.22093 8.77779C9.1785 8.77844 9.13608 8.77623 9.09395 8.77115C8.86249 8.74605 8.56943 8.59989 8.52205 8.43953C8.50429 8.37652 8.52395 8.31564 8.58175 8.27016C8.72414 8.15789 8.78526 7.98189 8.75541 7.77083C8.70566 7.42144 8.419 7.07371 8.05653 6.92613C7.81749 6.83352 7.75566 6.8193 7.6969 6.87473C7.67084 6.90955 7.65379 6.9503 7.64715 6.99317C7.64125 7.03678 7.6453 7.08116 7.659 7.12298C7.67435 7.16466 7.69967 7.20195 7.73275 7.23159C7.76582 7.26124 7.80565 7.28234 7.84876 7.29305C7.98564 7.33347 8.10625 7.41609 8.19338 7.52911C8.28051 7.64214 8.32971 7.77979 8.33395 7.92243C8.33836 8.06432 8.2973 8.2039 8.21674 8.3208C8.13619 8.43769 8.02037 8.52577 7.88619 8.57218C7.61328 8.72236 7.34249 8.74202 7.08331 8.63163C6.72914 8.47932 6.50668 8.12401 6.47541 8.00226C6.43798 7.86013 6.39675 7.8201 6.18638 7.8201C5.21672 7.79049 5.11414 7.4276 5.03264 7.1353C5.02316 7.09976 5.0125 7.06423 5.00089 7.02894C4.92745 6.81504 5.01724 6.65941 5.12361 6.58646C5.17526 6.55116 5.24443 6.52558 5.28779 6.56064C5.43561 6.68672 5.61882 6.764 5.8123 6.78188C5.99496 6.75416 6.04779 6.84086 6.12929 6.97138C6.16316 7.02704 6.20675 7.09811 6.26977 7.17864C6.36477 7.30111 6.45977 7.35251 6.54861 7.32882C6.64172 7.303 6.70876 7.19404 6.72108 7.10355C6.72511 7.07774 6.72724 7.01283 6.68175 6.98701C6.38041 6.81504 6.33563 6.59238 6.33563 6.47394C6.33563 6.32779 6.40623 6.1878 6.50526 6.13023L6.51142 6.12692C6.5432 6.11452 6.57161 6.09479 6.59434 6.06936C6.61616 6.0435 6.63162 6.01289 6.63948 5.97998C6.64734 5.94708 6.64738 5.91278 6.63958 5.87986C6.63101 5.8471 6.61393 5.81719 6.59007 5.79316C6.54367 5.74932 6.48215 5.72506 6.41831 5.72542C6.35348 5.726 6.29124 5.75094 6.24395 5.79529C6.11507 5.91373 6.09328 6.04164 6.07172 6.15605C6.05205 6.27094 6.03026 6.3908 5.87627 6.40501C5.67253 6.41851 5.43254 6.30007 5.27642 6.10868C5.07268 5.85807 5.02127 5.50891 5.1338 5.12588C5.38279 4.27313 6.41831 4.26295 6.42779 4.26295H6.48157L6.45172 4.59671C6.46996 4.76441 6.51947 4.9243 6.60215 5.07235C6.68507 5.22063 6.79642 5.34642 6.93288 5.44946C7.3522 5.68633 7.78172 5.6823 8.02313 5.57382C8.1141 5.5326 8.1719 5.47907 8.18328 5.42364C8.19157 5.38858 8.17593 5.34642 8.14253 5.30733C8.08093 5.23816 7.94187 5.1671 7.73623 5.1806C7.52984 5.20314 7.32212 5.15214 7.14965 5.03658C6.97737 4.92122 6.85148 4.74861 6.79429 4.54933V4.54104C6.76657 4.30417 6.82414 4.06611 6.95444 3.86642C7.08559 3.66696 7.2813 3.5186 7.5088 3.4462C7.68359 3.38052 7.87629 3.38052 8.05108 3.4462C8.22758 3.51111 8.37328 3.6376 8.46496 3.80152C8.47657 3.82307 8.48462 3.84463 8.4922 3.86429C8.49789 3.88632 8.50808 3.90693 8.52205 3.92517C8.54764 3.95758 8.58083 3.98319 8.61869 3.99972C8.65654 4.01625 8.69789 4.02318 8.73906 4.01992C8.77744 4.0166 8.81487 4.00523 8.84827 3.98628C8.90395 3.90361 9.29224 3.36093 9.76914 3.39457C9.90918 3.40458 10.045 3.44666 10.1662 3.51755C10.2874 3.58844 10.3907 3.68625 10.468 3.80341C10.5943 3.78304 11.0437 3.7378 11.3877 3.97136C11.5938 4.10945 11.7241 4.32051 11.7757 4.59671C11.8627 5.05482 11.8096 5.42577 11.6175 5.69652C11.3877 6.01985 11.0219 6.10442 10.8731 6.12692C10.4728 6.18566 10.3766 6.20817 10.3448 6.42064C10.3372 6.47394 10.3827 6.51326 10.4221 6.53695C10.5943 6.64188 11.0238 6.65941 11.3484 6.42254C11.4692 6.33608 11.5777 6.20343 11.6826 6.07552C11.8376 5.88602 11.9835 5.70789 12.1619 5.68633C12.2507 5.67686 12.3315 5.71405 12.3931 5.79861C12.5751 6.04354 12.5914 6.70276 12.4251 7.07773C12.2846 7.39586 11.9283 7.62255 11.6516 7.682C11.4692 7.72132 11.3164 7.69361 11.22 7.60691C11.1304 7.52235 11.1264 7.46076 11.1209 7.32882C11.1209 7.30514 11.1188 7.27932 11.1169 7.2516C11.1126 7.19072 11.0314 7.17722 10.9838 7.17722C10.8928 7.17864 10.7587 7.2381 10.7587 7.38425C10.7724 7.59254 10.7623 7.80171 10.7286 8.00771C10.6099 8.62358 9.64239 8.76973 9.2169 8.76973L9.22093 8.77779ZM7.77556 6.74398C7.85705 6.74398 7.95395 6.78188 8.09443 6.83541C8.49481 6.9972 8.80089 7.36814 8.85443 7.75733C8.89044 8.00368 8.81511 8.21331 8.64288 8.34739C8.61089 8.37321 8.61089 8.39476 8.61682 8.41229C8.64406 8.50917 8.87623 8.64727 9.10414 8.67285C9.3825 8.70483 10.5171 8.60795 10.6336 7.99823C10.6656 7.80044 10.6751 7.59554 10.6616 7.39373C10.6616 7.1983 10.8279 7.08934 10.9838 7.08389C11.1148 7.07987 11.2119 7.1488 11.2178 7.24971C11.2178 7.27932 11.2214 7.30514 11.2214 7.32882C11.228 7.45745 11.2294 7.48255 11.2891 7.53988C11.3602 7.60502 11.4825 7.62255 11.6312 7.59152C11.885 7.53798 12.2093 7.33095 12.3363 7.04457C12.4881 6.70087 12.4786 6.08073 12.3159 5.86233C12.2751 5.80666 12.2289 5.78298 12.1754 5.78914C12.0371 5.80666 11.9039 5.96845 11.7615 6.14232C11.6528 6.27449 11.5403 6.41306 11.4078 6.50781C11.0733 6.75014 10.6019 6.76648 10.3725 6.62554C10.2816 6.57082 10.2361 6.4936 10.2503 6.41117C10.2929 6.11863 10.4836 6.09091 10.861 6.03335C10.9961 6.01393 11.3306 5.93529 11.5381 5.64298C11.7146 5.39379 11.7641 5.0508 11.6807 4.61826C11.6334 4.36788 11.5166 4.17838 11.3349 4.05592C10.9703 3.81099 10.4578 3.90764 10.4538 3.90977L10.4199 3.91569L10.4022 3.88608C10.3346 3.77483 10.2412 3.68147 10.13 3.61386C10.0187 3.54625 9.89286 3.50638 9.76298 3.49761C9.31522 3.46563 8.92977 4.04787 8.92574 4.05379L8.91958 4.06397L8.91011 4.06942C8.86144 4.10123 8.80537 4.11991 8.74735 4.12367C8.69001 4.12707 8.63264 4.11735 8.57962 4.09524C8.52658 4.07235 8.47966 4.0373 8.44269 3.99291C8.422 3.96551 8.40657 3.93451 8.3972 3.90148C8.39186 3.88479 8.38521 3.86855 8.3773 3.85292C8.29807 3.70949 8.16996 3.59929 8.01629 3.54238C7.86263 3.48547 7.69363 3.48564 7.54007 3.54285C7.33331 3.60838 7.15533 3.74293 7.03593 3.92398C6.91927 4.10319 6.86751 4.31695 6.88929 4.52967C6.94155 4.70524 7.05362 4.85698 7.20607 4.95857C7.35852 5.06016 7.54173 5.10519 7.72391 5.08585C7.93239 5.07235 8.1141 5.13323 8.21313 5.24645C8.2669 5.30733 8.29059 5.37839 8.27638 5.44732C8.25861 5.53473 8.18138 5.61314 8.06127 5.66857C7.79593 5.787 7.32828 5.79529 6.8772 5.54018L6.87175 5.53592C6.72473 5.42626 6.60217 5.2872 6.51186 5.12757C6.42155 4.96795 6.36549 4.79127 6.34724 4.60879V4.60476L6.3669 4.37191C6.15914 4.38755 5.4169 4.48845 5.22074 5.16118C5.11745 5.51294 5.16389 5.82846 5.34559 6.05586C5.50172 6.24867 5.71517 6.3266 5.85992 6.31642C5.9291 6.30955 5.94331 6.27639 5.96511 6.14847C5.98477 6.03217 6.01486 5.8737 6.16648 5.73371C6.23182 5.67204 6.31827 5.63769 6.40813 5.63769C6.49798 5.63769 6.58443 5.67204 6.64977 5.73371C6.68485 5.76988 6.71011 5.81441 6.72317 5.86307C6.73623 5.91173 6.73665 5.96292 6.7244 6.0118C6.7138 6.06002 6.69148 6.1049 6.65942 6.14245C6.62735 6.18001 6.58653 6.20908 6.54056 6.22712C6.48133 6.26288 6.42376 6.35977 6.42376 6.48413C6.42376 6.5803 6.46167 6.76435 6.71895 6.9105C6.78694 6.94769 6.82011 7.02633 6.80779 7.12298C6.79239 7.24757 6.70544 7.39373 6.56496 7.43092C6.47328 7.45674 6.33492 7.44465 6.18283 7.24829C6.11507 7.16301 6.07148 7.08982 6.03642 7.03249C5.95492 6.90032 5.93526 6.87071 5.81443 6.89037H5.80283C5.59038 6.87265 5.38855 6.78995 5.22477 6.65349C5.18211 6.66566 5.14495 6.69219 5.11958 6.72858C5.08026 6.77998 5.04093 6.87071 5.08831 7.0088L5.12219 7.11966C5.20298 7.40604 5.28566 7.7038 6.18283 7.73151C6.42376 7.73151 6.51331 7.79049 6.56638 7.98805C6.58675 8.06716 6.77865 8.40637 7.11861 8.55039C7.35007 8.64916 7.59172 8.6295 7.83929 8.49354L7.84687 8.48951C7.96173 8.45011 8.06095 8.37497 8.13002 8.2751C8.19908 8.17523 8.23435 8.05587 8.23066 7.93451C8.22731 7.81319 8.18578 7.69601 8.11199 7.59965C8.03819 7.50328 7.93589 7.43263 7.81962 7.39775C7.76108 7.38264 7.70706 7.3536 7.66218 7.31309C7.6173 7.27259 7.58288 7.22183 7.56187 7.16514C7.54208 7.10732 7.536 7.04569 7.5441 6.98512C7.55429 6.92519 7.57798 6.86857 7.61328 6.8193L7.6173 6.81386C7.6364 6.79295 7.65969 6.77631 7.68565 6.765C7.71161 6.7537 7.73966 6.74799 7.76798 6.74824L7.77556 6.74398ZM9.17331 7.0467H9.14346L9.13328 7.02633C9.08641 7.01557 9.04256 6.9944 9.00499 6.96438C8.96743 6.93437 8.9371 6.89628 8.91627 6.85294C8.88642 6.78804 8.89376 6.72455 8.93783 6.67907C9.0909 6.48603 9.16385 6.24151 9.14157 5.99616C9.14157 5.8602 9.08992 5.77492 9.04041 5.69439C9.00298 5.63067 8.96697 5.57192 8.96175 5.49873C8.96225 5.42775 8.9873 5.35912 9.03264 5.30451C9.07798 5.24989 9.14082 5.21264 9.21051 5.19908C9.24472 5.18881 9.28094 5.1872 9.31592 5.1944C9.3509 5.20159 9.38355 5.21736 9.41093 5.2403C9.59406 5.38242 9.71749 5.82017 9.68788 6.2392C9.6919 6.51539 9.60496 6.7698 9.45831 6.91808C9.42176 6.9574 9.37772 6.98904 9.32878 7.01112C9.27984 7.03321 9.22699 7.04531 9.17331 7.0467ZM9.27258 5.28957C9.26026 5.28957 9.25007 5.28957 9.23846 5.29572H9.2323C9.18513 5.30588 9.1424 5.33077 9.1103 5.36679C9.07834 5.40262 9.06049 5.44883 9.06007 5.49683C9.0622 5.54207 9.09205 5.58755 9.12404 5.64298C9.17544 5.72755 9.23846 5.83248 9.23846 5.99214C9.26136 6.26222 9.17998 6.53082 9.01103 6.74279C9.00298 6.75014 8.98544 6.7698 9.0044 6.81386C9.03283 6.87473 9.10745 6.93229 9.16313 6.93229H9.19298L9.20056 6.94769C9.27207 6.93798 9.33803 6.90384 9.38724 6.85105C9.51328 6.72242 9.59074 6.48768 9.58861 6.2392C9.61467 5.8602 9.5038 5.44117 9.34934 5.32154C9.32761 5.30315 9.30032 5.29263 9.27187 5.2917V5.28957H9.27258ZM10.3988 5.39592C10.14 5.39772 9.88899 5.30756 9.69048 5.14152C9.55167 5.00243 9.45114 4.82987 9.39861 4.64053C9.34547 4.44765 9.34156 4.24454 9.38724 4.04976V4.0436C9.48745 3.78517 9.65589 3.79938 9.7272 3.80554H9.73715C9.83642 3.81289 10.0181 3.90029 10.0086 4.0815V4.08766C9.98425 4.21155 9.95108 4.55738 10.0814 4.65948C10.2889 4.79094 10.5403 4.83477 10.7803 4.78218H10.8039C10.8549 4.79744 10.9005 4.82696 10.9352 4.86725C10.97 4.90754 10.9925 4.95692 11.0001 5.00958C11.0072 5.06169 11.0001 5.11475 10.9797 5.16307C10.9588 5.21223 10.9239 5.25415 10.8793 5.28364L10.8731 5.28767C10.7225 5.35873 10.5611 5.39379 10.3962 5.39379L10.3988 5.39592ZM9.482 4.07629C9.44171 4.25314 9.44578 4.43721 9.49385 4.6121C9.53946 4.78426 9.63025 4.94111 9.75682 5.06643C9.90421 5.18814 10.0835 5.26493 10.2733 5.28767C10.4633 5.31136 10.6554 5.27962 10.8298 5.19908C10.8569 5.17985 10.8787 5.15389 10.8928 5.12375C10.9062 5.09199 10.9109 5.05726 10.9065 5.02308C10.9008 4.98924 10.8868 4.95734 10.8658 4.93023C10.8462 4.90677 10.8207 4.88902 10.7919 4.87882C10.5286 4.93458 10.254 4.88428 10.0276 4.73883C9.82813 4.58107 9.90157 4.13646 9.91389 4.07155C9.9172 3.94554 9.76298 3.90574 9.73526 3.90361H9.72294C9.66205 3.89816 9.55876 3.89011 9.48556 4.07558L9.482 4.07629ZM26.1248 4.70567V13.8137C26.1248 13.8137 34.2628 15.4894 34.2628 9.26172C34.2628 3.03404 26.1248 4.70567 26.1248 4.70567ZM28.2323 12.2328V6.33797C28.2323 6.33797 32.1335 5.52526 32.1335 9.27191C32.1335 12.6327 28.2323 12.2343 28.2323 12.2343V12.2321V12.2328ZM38.9417 6.62909C36.9908 6.62909 35.5575 8.28035 35.5575 10.3215C35.5575 12.3627 36.9901 14.0168 38.9417 14.0168C40.8931 14.0168 42.3068 12.3648 42.3068 10.3236C42.3068 8.28248 40.8931 6.63028 38.9417 6.63028V6.62838V6.62909ZM38.9363 12.3513C37.7778 12.3513 37.5248 11.1743 37.5248 10.3236C37.5248 9.47278 37.6591 8.32441 38.9363 8.32441C40.212 8.32441 40.3388 9.47088 40.3388 10.3236C40.3388 11.1764 40.0857 12.3513 38.9363 12.3513ZM44.0004 7.10403V13.7758H45.8983V8.40684C45.8983 8.40684 47.052 8.06527 48.0873 8.54091C48.3927 7.38638 48.4621 6.97967 48.4621 6.97967C48.4621 6.97967 47.4957 6.56537 46.2328 6.64591C44.9708 6.72929 44.0004 7.10213 44.0004 7.10213V7.10403ZM52.7207 6.62838C50.6286 6.44907 49.6691 7.00525 49.6691 7.00525L49.8511 8.50159C49.8511 8.50159 51.0562 8.01031 52.3481 8.25121C53.2507 8.42058 53.1863 9.51826 53.1863 9.51826H51.4424C50.9041 9.51826 50.3701 9.63859 49.9046 9.91076C49.3936 10.2114 48.9662 10.6728 48.9248 11.5452C48.8454 13.2216 49.8632 13.7211 50.5419 13.8666C51.3948 13.8666 52.9562 13.8964 53.685 13.8666C54.1193 13.8415 54.545 13.7346 54.9396 13.5513V8.39547C54.9396 8.39547 54.8126 6.80438 52.7207 6.62625V6.62838ZM53.1863 12.3987H51.5C51.5 12.3987 50.8328 12.3349 50.8328 11.6717C50.8328 11.0835 51.2171 10.8116 51.5793 10.8116H53.1841V12.3987H53.1863ZM69.9157 6.62838C67.8236 6.44907 66.8641 7.00525 66.8641 7.00525L67.044 8.50159C67.044 8.50159 68.2491 8.01031 69.5419 8.25121C70.4464 8.42058 70.3791 9.51826 70.3791 9.51826H68.6353C68.0972 9.51826 67.563 9.63859 67.0975 9.91076C66.5867 10.2114 66.1591 10.6728 66.1176 11.5452C66.0383 13.2216 67.0563 13.7211 67.7348 13.8666C68.5876 13.8666 70.1491 13.8964 70.8778 13.8666C71.5566 13.8396 72.1325 13.5513 72.1325 13.5513V8.39547C72.1325 8.39547 72.0057 6.80438 69.9136 6.62625L69.9157 6.62838ZM70.3813 12.3987H68.695C68.695 12.3987 68.0278 12.3349 68.0278 11.6717C68.0278 11.0835 68.4114 10.8116 68.7736 10.8116H70.3791V12.3987H70.3813ZM62.4996 4.53772V8.22682H59.0246V4.53843H56.9223V13.7306H59.0246V10.0394H62.4996V13.7306H64.6019V4.53772H62.4982H62.4996ZM79.2516 7.03297L78.8614 8.49354C78.8614 8.49354 75.6754 7.54414 75.7067 10.3196C75.7406 13.0951 78.2168 12.4515 78.9787 12.0609C79.1483 13.2 79.2494 13.6399 79.2494 13.6399C79.2494 13.6399 77.6541 14.2044 76.2651 13.8787C74.8733 13.5553 73.5175 12.5185 73.6186 10.235C73.7198 7.94872 75.2831 7.18125 76.0275 6.8591C77.2843 6.32045 79.2494 7.03297 79.2494 7.03297H79.2516ZM80.6766 3.84131L82.6931 3.53551V9.31123L84.9672 6.79609H87.1723L84.4609 9.87144C84.4609 9.87144 86.7999 12.578 87.2946 13.7306C86.6336 13.7109 85.0051 13.7306 85.0051 13.7306C85.0051 13.7306 84.2946 12.0251 82.7313 10.8116V13.7306H80.7458L80.6785 3.83942L80.6766 3.84131ZM93.1391 7.01757L92.7496 8.44427C92.7496 8.44427 90.2851 7.73554 90.1031 8.63163C89.9688 9.31123 91.4528 9.64688 91.8174 9.82004C92.7828 10.2803 93.4168 10.7716 93.4168 11.8261C93.4168 12.8798 92.9356 13.985 90.5286 13.985C88.1223 13.985 87.9676 13.4937 87.9676 13.4937L88.3578 11.9642C88.3578 11.9642 89.2801 12.582 90.8518 12.402C91.8172 12.2897 91.5023 11.5397 90.6909 11.2197C89.8814 10.8983 87.7696 10.4617 88.3221 8.38126C89.0723 5.57595 93.1391 7.01875 93.1391 7.01875V7.01757Z" fill="white"/>
</g>
</g>
<defs>
<clipPath id="clip0_1140_4747">
<rect width="95" height="18.95" fill="white"/>
</clipPath>
<clipPath id="clip1_1140_4747">
<rect width="95" height="18.95" fill="white"/>
</clipPath>
</defs>
</svg>
