<svg width="87" height="18" viewBox="0 0 87 18" fill="none" xmlns="http://www.w3.org/2000/svg">
<g clip-path="url(#clip0_1140_4844)">
<g clip-path="url(#clip1_1140_4844)">
<path d="M0.214196 17.6915V5.67352H3.74532V17.6915H0.215093H0.214196ZM1.97931 3.73152C1.40888 3.73152 0.936207 3.5575 0.562196 3.20857C0.380273 3.03614 0.236301 2.82766 0.139472 2.59645C0.042643 2.36525 -0.00491461 2.11638 -0.000164471 1.86576C-0.000164471 1.35178 0.187289 0.912249 0.561299 0.54717C0.936207 0.182091 1.40888 0 1.97931 0C2.56858 0 3.04125 0.182091 3.39822 0.54717C3.77223 0.912249 3.95968 1.35178 3.95968 1.86576C3.96467 2.11647 3.91732 2.36546 3.82064 2.59683C3.72396 2.8282 3.58009 3.03685 3.39822 3.20947C3.04125 3.5584 2.56858 3.73152 1.97931 3.73152Z" fill="url(#paint0_linear_1140_4844)"/>
<path d="M15.7414 17.6914V10.7989C15.7414 10.0858 15.501 9.50453 15.0194 9.05692C14.5378 8.60842 13.9135 8.38507 13.1467 8.38507C12.6471 8.38507 12.2013 8.48464 11.8085 8.68377C11.4249 8.87485 11.1011 9.1674 10.8721 9.52964C10.6577 9.89472 10.551 10.3172 10.551 10.7989L9.18682 10.1522C9.18682 9.20672 9.40028 8.38507 9.829 7.6881C10.2724 6.97736 10.9013 6.40111 11.6479 6.02147C12.4327 5.62321 13.3162 5.42407 14.2965 5.42407C15.2418 5.42407 16.0894 5.64832 16.8383 6.09682C17.5658 6.50633 18.1746 7.09757 18.6052 7.81278C19.0322 8.50975 19.2465 9.26413 19.2465 10.0768V17.6914H15.7414ZM7.0459 17.6914V5.67344H10.551V17.6914H7.0459Z" fill="url(#paint1_linear_1140_4844)"/>
<path d="M24.0083 17.6916V0.671875H27.5135V17.6916H24.0083ZM20.9858 8.53498V5.67355H30.5369V8.53498H20.9849H20.9858Z" fill="url(#paint2_linear_1140_4844)"/>
<path d="M32.7041 17.6914V5.67344H36.2092V17.6914H32.7041ZM36.2092 11.0474L34.8441 10.2015C35.0056 8.72503 35.4684 7.56431 36.2361 6.71844C37.003 5.85553 38.1089 5.42407 39.5529 5.42407C40.178 5.42407 40.7395 5.52364 41.2391 5.72277C41.7386 5.90486 42.1934 6.21254 42.6033 6.6431L40.4094 8.98247C40.2067 8.77907 39.9596 8.62553 39.6874 8.53397C39.3866 8.42911 39.0695 8.37869 38.7511 8.38507C38.0012 8.38507 37.386 8.60932 36.9043 9.05782C36.4406 9.48838 36.2092 10.1522 36.2092 11.0474Z" fill="url(#paint3_linear_1140_4844)"/>
<path d="M49.0688 17.9399C47.8912 17.9399 46.8301 17.6663 45.8848 17.1192C44.9553 16.5876 44.1876 15.8134 43.6641 14.8793C43.1295 13.9339 42.8613 12.8719 42.8613 11.695C42.8613 10.5002 43.1295 9.43007 43.6641 8.48464C44.1878 7.55087 44.9554 6.77699 45.8848 6.24572C46.8301 5.69855 47.8912 5.42407 49.0688 5.42407C49.9962 5.42407 50.8259 5.59809 51.5568 5.94702C52.2887 6.29506 52.8681 6.78482 53.2968 7.41452C53.7417 8.02896 53.983 8.72503 54.0189 9.50453V13.8343C53.983 14.6309 53.7417 15.3359 53.2959 15.9495C52.8681 16.563 52.2887 17.0528 51.5568 17.4179C50.8259 17.7659 49.9962 17.9399 49.0688 17.9399ZM49.711 14.9287C50.6922 14.9287 51.486 14.6309 52.0923 14.0335C52.6986 13.4199 53.0018 12.6315 53.0018 11.6699C53.0018 11.0393 52.8592 10.484 52.5739 10.0024C52.315 9.5132 51.9137 9.11411 51.4232 8.85779C50.9416 8.57613 50.3711 8.4353 49.7101 8.4353C49.0688 8.4353 48.4984 8.57613 47.9988 8.85779C47.5159 9.12436 47.1173 9.52086 46.8481 10.0024C46.5808 10.484 46.4472 11.0393 46.4472 11.6699C46.4472 12.3157 46.5808 12.8889 46.8481 13.3867C47.1267 13.861 47.5231 14.2553 47.9988 14.5313C48.4984 14.7968 49.0688 14.9287 49.711 14.9287ZM52.8143 17.6914V14.456L53.3767 11.5201L52.8143 8.63444V5.67344H56.2925V17.6914H52.8143Z" fill="url(#paint4_linear_1140_4844)"/>
<path d="M65.6893 17.9399C64.3691 17.9399 63.1834 17.6663 62.1304 17.1191C61.0783 16.572 60.2487 15.8248 59.6424 14.8793C59.0361 13.9339 58.7329 12.8718 58.7329 11.695C58.7329 10.5002 59.0361 9.43004 59.6424 8.48461C60.2487 7.53917 61.0783 6.79286 62.1304 6.24569C63.2013 5.68058 64.387 5.39893 65.6893 5.39893C66.7064 5.39893 67.6428 5.57384 68.4984 5.92188C69.355 6.26991 70.0949 6.76775 70.7192 7.41448L68.4715 9.52961C68.1253 9.17636 67.705 8.90432 67.241 8.73307C66.7456 8.54496 66.2191 8.45213 65.6893 8.45949C65.0831 8.45101 64.4847 8.5967 63.9502 8.88287C63.4569 9.14277 63.0415 9.52911 62.7466 10.0023C62.4605 10.467 62.3178 11.0231 62.3178 11.6699C62.3178 12.2995 62.4614 12.8638 62.7466 13.3616C63.0497 13.8424 63.4506 14.2245 63.9502 14.5062C64.4677 14.7717 65.0471 14.9044 65.6893 14.9044C66.2777 14.9044 66.8042 14.8129 67.2679 14.6309C67.7349 14.4417 68.1549 14.1527 68.4984 13.7841L70.773 15.8992C70.1256 16.5542 69.3517 17.0706 68.4984 17.4169C67.6428 17.7659 66.7064 17.9399 65.6893 17.9399Z" fill="url(#paint5_linear_1140_4844)"/>
<path d="M74.6441 17.6916V0.671875H78.1492V17.6916H74.6441ZM71.6215 8.53498V5.67355H81.1727V8.53498H71.6215Z" fill="url(#paint6_linear_1140_4844)"/>
<path d="M84.8329 17.94C84.1907 17.94 83.6642 17.7409 83.2543 17.3426C83.0552 17.1544 82.8976 16.9266 82.7916 16.6739C82.6857 16.4212 82.6337 16.1491 82.639 15.8751C82.639 15.2939 82.8435 14.805 83.2543 14.4067C83.6642 14.0085 84.1907 13.8093 84.8329 13.8093C85.4571 13.8093 85.9738 14.0085 86.3845 14.4067C86.7944 14.805 86.9998 15.2948 86.9998 15.8751C86.9998 16.4555 86.7944 16.9443 86.3845 17.3426C85.9746 17.7409 85.4571 17.94 84.8329 17.94Z" fill="url(#paint7_linear_1140_4844)"/>
</g>
</g>
<defs>
<linearGradient id="paint0_linear_1140_4844" x1="43.4998" y1="0" x2="43.4998" y2="19.8336" gradientUnits="userSpaceOnUse">
<stop stop-color="white"/>
<stop offset="0.34" stop-color="#E1E1E1"/>
<stop offset="0.593" stop-color="#D2D2D2"/>
<stop offset="1" stop-color="#AEAEAE"/>
</linearGradient>
<linearGradient id="paint1_linear_1140_4844" x1="43.4998" y1="-8.67317e-05" x2="43.4998" y2="19.8335" gradientUnits="userSpaceOnUse">
<stop stop-color="white"/>
<stop offset="0.34" stop-color="#E1E1E1"/>
<stop offset="0.593" stop-color="#D2D2D2"/>
<stop offset="1" stop-color="#AEAEAE"/>
</linearGradient>
<linearGradient id="paint2_linear_1140_4844" x1="43.4999" y1="2.20039e-05" x2="43.4999" y2="19.8336" gradientUnits="userSpaceOnUse">
<stop stop-color="white"/>
<stop offset="0.34" stop-color="#E1E1E1"/>
<stop offset="0.593" stop-color="#D2D2D2"/>
<stop offset="1" stop-color="#AEAEAE"/>
</linearGradient>
<linearGradient id="paint3_linear_1140_4844" x1="43.5002" y1="-8.67317e-05" x2="43.5002" y2="19.8335" gradientUnits="userSpaceOnUse">
<stop stop-color="white"/>
<stop offset="0.34" stop-color="#E1E1E1"/>
<stop offset="0.593" stop-color="#D2D2D2"/>
<stop offset="1" stop-color="#AEAEAE"/>
</linearGradient>
<linearGradient id="paint4_linear_1140_4844" x1="43.4999" y1="-8.68567e-05" x2="43.4999" y2="19.8335" gradientUnits="userSpaceOnUse">
<stop stop-color="white"/>
<stop offset="0.34" stop-color="#E1E1E1"/>
<stop offset="0.593" stop-color="#D2D2D2"/>
<stop offset="1" stop-color="#AEAEAE"/>
</linearGradient>
<linearGradient id="paint5_linear_1140_4844" x1="43.4998" y1="-0.000117285" x2="43.4998" y2="19.8334" gradientUnits="userSpaceOnUse">
<stop stop-color="white"/>
<stop offset="0.34" stop-color="#E1E1E1"/>
<stop offset="0.593" stop-color="#D2D2D2"/>
<stop offset="1" stop-color="#AEAEAE"/>
</linearGradient>
<linearGradient id="paint6_linear_1140_4844" x1="43.4999" y1="2.20039e-05" x2="43.4999" y2="19.8336" gradientUnits="userSpaceOnUse">
<stop stop-color="white"/>
<stop offset="0.34" stop-color="#E1E1E1"/>
<stop offset="0.593" stop-color="#D2D2D2"/>
<stop offset="1" stop-color="#AEAEAE"/>
</linearGradient>
<linearGradient id="paint7_linear_1140_4844" x1="43.4998" y1="1.11798e-05" x2="43.4998" y2="19.8336" gradientUnits="userSpaceOnUse">
<stop stop-color="white"/>
<stop offset="0.34" stop-color="#E1E1E1"/>
<stop offset="0.593" stop-color="#D2D2D2"/>
<stop offset="1" stop-color="#AEAEAE"/>
</linearGradient>
<clipPath id="clip0_1140_4844">
<rect width="87" height="17.94" fill="white"/>
</clipPath>
<clipPath id="clip1_1140_4844">
<rect width="87" height="17.94" fill="white"/>
</clipPath>
</defs>
</svg>
