<svg width="84" height="18" viewBox="0 0 84 18" fill="none" xmlns="http://www.w3.org/2000/svg">
<g clip-path="url(#clip0_1140_4740)">
<g clip-path="url(#clip1_1140_4740)">
<path fill-rule="evenodd" clip-rule="evenodd" d="M17.7526 13.3861L16.2046 11.8556L10.2461 17.747L0 7.61635L3.29239 4.36088L4.84056 5.89138L10.799 0L21.0451 10.1308L17.7526 13.3861ZM6.38839 11.9893L1.96563 7.61619L3.29239 6.30421L4.84056 7.83471L10.799 1.9435L13.6739 4.78581L12.347 6.09779L10.799 4.56712L6.16732 9.14686L7.71532 10.6774L6.38856 11.9892L6.38839 11.9893ZM7.37138 12.961L10.2461 15.8035L16.2046 9.91211L17.7526 11.4426L19.0795 10.1308L14.6567 5.75781L13.33 7.06963L14.8778 8.60013L10.2461 13.1797L8.69797 11.6492L7.37138 12.961ZM10.2461 11.2362L8.13296 9.14686L10.799 6.51078L12.9122 8.60013L10.2461 11.2362Z" fill="white"/>
<path d="M68.9566 10.5232C68.9827 10.3243 68.9968 10.124 68.9988 9.92336C68.9566 7.83048 67.5739 6.51884 65.4852 6.51884C63.3827 6.51884 61.9714 7.9839 61.9714 10.1885C61.9714 12.3791 63.3827 13.8302 65.6403 13.8302C67.4185 13.8302 68.6177 12.7558 68.8721 11.3465H67.3479C67.1503 12.1419 66.4587 12.6023 65.5558 12.6023C64.37 12.6023 63.6081 11.807 63.5659 10.5931V10.5232H68.9566ZM65.4994 7.73274C66.5574 7.73274 67.2914 8.33263 67.4185 9.39312H63.6223C63.7354 8.37452 64.5538 7.73274 65.4994 7.73274ZM73.4691 13.8302C75.205 13.8302 76.5034 12.965 76.5034 11.5977C76.5034 10.0071 75.1628 9.6722 73.5541 9.47689C72.524 9.36519 71.8323 9.28142 71.8323 8.61172C71.8323 8.03975 72.4247 7.67689 73.3001 7.67689C74.1887 7.67689 74.7958 8.13732 74.8803 8.79323H76.3761C76.2774 7.328 75.0357 6.51884 73.2717 6.51884C71.5641 6.51884 70.3503 7.38385 70.3503 8.73738C70.3503 10.2164 71.6348 10.5651 73.2717 10.7604C74.3583 10.9001 75.0076 10.9558 75.0076 11.7234C75.0076 12.2953 74.4003 12.6582 73.4833 12.6582C72.3967 12.6582 71.7473 12.1279 71.6912 11.3884H70.1951C70.2516 12.9371 71.5641 13.8302 73.4691 13.8302ZM80.9662 13.8302C82.7016 13.8302 84 12.965 84 11.5977C84 10.0071 82.6594 9.6722 81.0507 9.47689C80.0206 9.36519 79.329 9.28142 79.329 8.61172C79.329 8.03975 79.9219 7.67689 80.7967 7.67689C81.6859 7.67689 82.2925 8.13732 82.3775 8.79323H83.8732C83.7745 7.328 82.5326 6.51884 80.7686 6.51884C79.0613 6.51884 77.8474 7.38385 77.8474 8.73738C77.8474 10.2164 79.1314 10.5651 80.7686 10.7604C81.8554 10.9001 82.5042 10.9558 82.5042 11.7234C82.5042 12.2953 81.8975 12.6582 80.9799 12.6582C79.8933 12.6582 79.2445 12.1279 79.188 11.3884H77.6921C77.7487 12.9371 79.0612 13.8302 80.9662 13.8302ZM59.1458 12.421V3.97949H55.5333V5.3051H57.6215V12.421H55.5333V13.7466H61.2203V12.421H59.1458ZM29.3939 12.421V3.97949H25.7812V5.3051H27.8699V12.421H25.7812V13.7466H31.4684V12.421H29.3939ZM35.8888 13.8302C38.048 13.8302 39.5297 12.3651 39.5297 10.1747C39.5297 7.99787 38.048 6.51901 35.8888 6.51901C33.7156 6.51901 32.2479 7.99803 32.2479 10.1745C32.2479 12.3651 33.7156 13.8302 35.8888 13.8302ZM35.8888 12.5467C34.6329 12.5467 33.8003 11.5558 33.8003 10.1747C33.8003 8.79323 34.6329 7.80273 35.8888 7.80273C37.1305 7.80273 37.9633 8.79323 37.9633 10.1747C37.9633 11.5558 37.1305 12.5467 35.8888 12.5467ZM43.952 13.8302C45.6877 13.8302 46.9859 12.9652 46.9859 11.5979C46.9859 10.0071 45.6453 9.67237 44.0366 9.47689C43.0065 9.36536 42.3151 9.28175 42.3151 8.61188C42.3151 8.03992 42.9076 7.67706 43.7826 7.67706C44.6716 7.67706 45.2785 8.13749 45.3631 8.79323H46.859C46.7601 7.32816 45.5184 6.51884 43.7544 6.51884C42.0468 6.51884 40.8333 7.38402 40.8333 8.73738C40.8333 10.2164 42.1175 10.5653 43.7544 10.7606C44.841 10.9002 45.4901 10.9559 45.4901 11.7234C45.4901 12.2953 44.8834 12.6582 43.966 12.6582C42.8794 12.6582 42.2304 12.1279 42.1739 11.3884H40.678C40.7344 12.9373 42.0468 13.8302 43.952 13.8302ZM51.4487 13.8302C53.1849 13.8302 54.4831 12.9652 54.4831 11.5979C54.4831 10.0071 53.1421 9.67237 51.5332 9.47689C50.5031 9.36536 49.812 9.28175 49.812 8.61188C49.812 8.03992 50.4044 7.67706 51.2794 7.67706C52.1684 7.67706 52.7752 8.13749 52.86 8.79323H54.356C54.2571 7.32816 53.0153 6.51884 51.2513 6.51884C49.5438 6.51884 48.3301 7.38402 48.3301 8.73738C48.3301 10.2164 49.6141 10.5653 51.2513 10.7606C52.3379 10.9002 52.9868 10.9559 52.9868 11.7234C52.9868 12.2953 52.3802 12.6582 51.4631 12.6582C50.3763 12.6582 49.727 12.1279 49.6705 11.3884H48.1749C48.2314 12.9373 49.5438 13.8302 51.4487 13.8302Z" fill="white"/>
</g>
</g>
<defs>
<clipPath id="clip0_1140_4740">
<rect width="84" height="18" fill="white"/>
</clipPath>
<clipPath id="clip1_1140_4740">
<rect width="84" height="18" fill="white"/>
</clipPath>
</defs>
</svg>
