<svg width="63" height="27" viewBox="0 0 63 27" fill="none" xmlns="http://www.w3.org/2000/svg">
<g clip-path="url(#clip0_1140_4788)">
<path d="M18.3228 7.9801L0.0826631 0C-0.505732 5.42041 2.19107 7.9801 3.61302 8.58235L18.3228 14.6051V7.9801Z" fill="white"/>
<path d="M16.5575 9.63625C17.6166 9.15445 17.4555 8.03018 17.2103 7.52832L18.3226 7.98003C19.2697 8.43173 19.3797 8.88344 19.3524 9.18454V14.0027C19.3524 14.8459 18.862 15.3578 18.6168 15.5084L6.99609 20.9288V14.1533C9.74191 12.8484 15.4984 10.1181 16.5575 9.63625Z" fill="#ABAEB2"/>
<path d="M9.05854 15.6592C7.99946 15.1774 8.22499 14.0532 8.47016 13.5513L7.29335 14.003C6.6196 14.3041 6.26367 14.7558 6.26367 15.2075V20.0257C6.26367 20.8689 6.75401 21.3808 6.99918 21.5314L19.2083 26.9518V20.1762C16.4625 18.8713 10.1177 16.141 9.05854 15.6592Z" fill="white"/>
<path d="M36.152 18.5191H33.6883L31.7769 15.7092H29.6673V18.5191H27.3735V8.43213H31.6636C34.3113 8.43213 35.9679 9.8299 35.9679 12.0922C35.9679 13.6053 35.2175 14.7149 33.929 15.2769L36.152 18.5191ZM33.6459 12.0922C33.6459 10.9827 32.9379 10.3342 31.5362 10.3342H29.6673V13.8503H31.5362C32.9379 13.8503 33.6459 13.1874 33.6459 12.0922Z" fill="white"/>
<path d="M50.2878 8.43213H52.4821L49.24 18.5191H46.7763L44.5959 11.6887L42.3447 18.5191H39.8952L36.6387 8.43213H39.0173L41.2544 15.5218L43.5906 8.43213H45.7144L47.9798 15.5795L50.2878 8.43213Z" fill="white"/>
<path d="M60.5529 18.5191L59.6749 16.3576H55.0734L54.1955 18.5191H51.8452L56.2626 8.43213H58.5283L62.96 18.5191H60.5529ZM55.8098 14.5852H58.9529L57.3811 10.7233L55.8098 14.5852Z" fill="white"/>
</g>
<defs>
<clipPath id="clip0_1140_4788">
<rect width="63" height="27" fill="white"/>
</clipPath>
</defs>
</svg>
