<svg width="105" height="19" viewBox="0 0 105 19" fill="none" xmlns="http://www.w3.org/2000/svg">
<g clip-path="url(#clip0_1140_4755)">
<path d="M100.466 4.86475H66.9175L66.883 4.90501L64.9178 7.1473L64.8825 7.18757V15.2146H98.634L98.6692 15.1744L100.634 12.9304L100.669 12.891V4.86475H100.466ZM22.122 13.6844L21.2368 15.2146H16.6478V13.438H19.7829L19.9418 13.1521V12.1403L19.7829 11.8426H17.4094L16.5232 10.3121V6.39524L17.4094 4.86475H21.1911V6.64167H18.8627L18.6925 6.92752V9.06715L18.8625 9.36576H21.2368L22.122 10.896V13.6844ZM37.7699 15.2146H35.589V9.1579L33.806 15.2144H33.4659L31.6708 9.15761V15.2144H30.1149V4.86475H32.3755L33.9425 9.06715L35.5208 4.86475H37.7699V15.2146ZM44.8352 13.6717L43.9493 15.2146H39.8161L38.9302 13.6717V4.86475H41.0992V13.1521L41.2692 13.438H42.4962L42.6662 13.1521V4.86475H44.8352V13.6717ZM52.4409 15.2146H49.9758L48.2722 10.8438H48.1704V15.2146H46.0014V4.86475H50.9637L51.8494 6.39609L51.8382 9.30082L50.9637 10.8438H50.7927L52.4409 15.2146ZM49.6677 6.92752L49.5088 6.64167H48.1704V9.06715H49.4992L49.6692 8.76939L49.6677 6.92752ZM28.9249 6.39609L28.039 4.86475H23.9618L23.0759 6.39609V15.2144H25.2449V10.8438H26.744V15.2146H28.9249V6.39609ZM26.5851 6.64167L26.744 6.92752V9.06715H25.2568V6.92752L25.4159 6.64167H26.5851ZM59.0772 6.39609L58.1913 4.86475H54.1112L53.2255 6.39609V15.2144H55.3943V10.8438H56.8933V15.2146H59.0743V6.63827L59.0772 6.39609ZM56.7345 6.64167L56.8933 6.92752V9.06715H55.4087V6.92752L55.5676 6.64167H56.7345ZM62.5969 13.6895V4.86475H60.4271V15.2146H61.7139L62.5969 13.6895ZM7.83799 12.2098L7.85289 12.1814C7.85289 12.1877 7.8447 12.197 7.83799 12.2098ZM7.85512 12.1772C7.8556 12.1755 7.8556 12.1737 7.85512 12.1721V12.1772ZM10.8291 12.2254C10.8266 12.22 10.8238 12.2148 10.8207 12.2098L10.8291 12.2254ZM10.8381 12.239C10.8362 12.2347 10.834 12.2306 10.8314 12.2268L10.8381 12.239ZM9.32934 8.0454C8.81005 8.0454 8.5648 7.45045 8.5648 7.45045C8.65487 7.49812 8.75275 7.52344 8.852 7.52475C8.97711 7.51284 9.04388 7.2681 9.32934 7.2681C9.6148 7.2681 9.68083 7.51284 9.80594 7.52475C9.90523 7.52361 10.003 7.49837 10.0931 7.45045C10.0931 7.45045 9.84863 8.04512 9.32934 8.04512V8.0454ZM12.8368 10.7428L12.9118 10.1757C12.9202 10.1068 12.948 10.043 12.9912 9.99418L13.3779 9.56087C13.3779 9.56087 13.5279 9.40348 13.4432 9.05864L12.5439 9.93491C12.506 9.97212 12.482 10.0245 12.4769 10.0812L12.3662 11.2975L12.6998 11.01C12.773 10.9459 12.8214 10.8514 12.8346 10.7471M14.2676 12.8493L13.3906 11.1898C13.3906 11.1898 13.2409 11.4583 13.2409 11.532C13.2409 11.5919 13.1267 12.6993 13.1262 13.1136C13.1262 13.18 13.1126 13.2455 13.0866 13.3049C13.0606 13.3643 13.0228 13.416 12.9763 13.4559L12.9252 13.4995C12.8667 13.5499 12.8186 13.6144 12.7844 13.6884C12.7502 13.7624 12.7307 13.8441 12.7273 13.9277L12.6936 14.8919L14.1065 13.7014C14.2196 13.6054 14.2983 13.4656 14.3279 13.3081C14.3575 13.1507 14.3361 12.9863 14.2676 12.8456M4.55246 13.7051L5.96413 14.8919L5.92814 13.9292C5.92488 13.8456 5.90545 13.7638 5.87124 13.6898C5.83704 13.6159 5.7889 13.5514 5.7303 13.5012L5.67941 13.4576C5.63289 13.4177 5.59513 13.366 5.56911 13.3066C5.54309 13.2472 5.52952 13.1817 5.52948 13.1153C5.52948 12.7013 5.41406 11.5927 5.4148 11.5337C5.4148 11.4558 5.26487 11.1915 5.26487 11.1915L4.39112 12.8493C4.32262 12.99 4.30122 13.1543 4.33091 13.3117C4.36059 13.4691 4.43933 13.6091 4.55246 13.7051ZM6.18009 10.0815C6.17507 10.0247 6.15117 9.97222 6.11331 9.93491L5.21771 9.05864C5.1353 9.40093 5.28374 9.56087 5.28374 9.56087L5.66973 9.9939C5.71317 10.0427 5.74147 10.1065 5.74991 10.1754L5.82487 10.7428C5.83729 10.8472 5.88569 10.9416 5.95892 11.0057L6.28955 11.2975L6.18009 10.0815Z" fill="white"/>
<path d="M11.3768 12.5605L11.8025 12.0608L12.0272 9.58485C12.0277 9.57756 12.0259 9.57031 12.0223 9.56432C12.0186 9.55833 12.0132 9.55397 12.0071 9.55197C12.0009 9.54997 11.9944 9.55046 11.9885 9.55335C11.9826 9.55624 11.9778 9.56135 11.9748 9.56783L11.7432 10.177C11.6918 10.3131 11.6191 10.4379 11.529 10.5442L11.3572 10.747L11.0306 10.5272L11.0373 10.521C11.1812 10.378 11.3183 10.0933 11.3699 9.97336C11.3722 9.96894 11.3733 9.96386 11.3731 9.95873C11.373 9.95359 11.3715 9.94863 11.3689 9.94443C11.3663 9.94025 11.3627 9.93703 11.3585 9.93516C11.3543 9.9333 11.3497 9.93287 11.3453 9.93394C11.1954 9.97506 10.8754 10.006 10.8042 10.0485C10.7329 10.0913 10.2434 10.57 10.1161 10.7112C10.1125 10.715 10.1101 10.7199 10.1091 10.7253C10.1081 10.7307 10.1085 10.7363 10.1104 10.7414C10.1124 10.7465 10.1156 10.7507 10.1197 10.7536C10.1238 10.7565 10.1286 10.7578 10.1335 10.7575C10.2541 10.7461 10.5202 10.7197 10.7128 10.6863L10.8806 10.9557L10.5058 11.3059L10.6684 11.6312C10.6684 11.6312 10.3859 11.6414 10.3268 11.6105C10.2675 11.5798 9.55932 10.9971 9.55932 10.9971V11.3059C9.52983 11.3416 9.49428 11.37 9.45484 11.3894C9.4154 11.4088 9.37291 11.4188 9.32996 11.4188C9.28702 11.4188 9.24452 11.4088 9.20508 11.3894C9.16564 11.37 9.13009 11.3416 9.1006 11.3059V10.9977C9.1006 10.9977 8.39067 11.5807 8.33234 11.6113C8.274 11.6425 7.99152 11.632 7.99152 11.632L8.15337 11.3068L7.77854 10.9568L7.93741 10.6846H7.94634C8.14195 10.7197 8.4778 10.7461 8.62549 10.7563C8.63052 10.7567 8.63553 10.7553 8.63977 10.7522C8.644 10.749 8.64725 10.7444 8.64901 10.739C8.65077 10.7337 8.65095 10.7278 8.64953 10.7222C8.64811 10.7167 8.64517 10.7119 8.64113 10.7084C8.48525 10.5666 7.92549 10.0896 7.85574 10.0477C7.78624 10.006 7.46528 9.97421 7.31461 9.93309C7.31023 9.93228 7.30574 9.93286 7.30163 9.93476C7.29751 9.93666 7.29393 9.93981 7.29127 9.94386C7.28871 9.94793 7.28717 9.95273 7.28682 9.95773C7.28647 9.96272 7.28732 9.96774 7.28929 9.97222C7.34142 10.0896 7.47868 10.3772 7.62191 10.5201L7.64078 10.5365L7.30269 10.7453L7.13017 10.5425C7.0399 10.4359 6.96731 10.3115 6.91595 10.1753L6.68436 9.56585C6.68147 9.5592 6.67664 9.55391 6.6707 9.55091C6.66476 9.5479 6.65809 9.54737 6.65184 9.5494C6.6456 9.55148 6.64019 9.556 6.63656 9.56217C6.63294 9.56833 6.63132 9.57576 6.63198 9.58315L6.84024 11.8853C6.85067 11.9973 6.89337 12.1022 6.96188 12.183L7.28159 12.5588C7.32404 12.6084 7.34787 12.675 7.34762 12.7445V13.0774L6.90255 12.8378L6.94152 13.2292C6.95106 13.3323 6.98297 13.4312 7.03436 13.5167C7.50763 14.288 8.18885 14.8612 8.974 15.1487C9.20498 15.2318 9.45271 15.2318 9.68368 15.1487C10.4696 14.8595 11.151 14.2844 11.6241 13.5113C11.675 13.4255 11.7069 13.3268 11.7169 13.2238L11.7551 12.8327L11.3108 13.0757V12.7428C11.3108 12.6733 11.3344 12.6067 11.3768 12.5571M8.05358 13.6355C8.03312 13.6504 8.00955 13.6587 7.98532 13.6596C7.84606 13.6596 7.72468 13.3454 7.72468 13.3454V12.5015C7.72464 12.4789 7.72897 12.4567 7.73734 12.4363L7.81751 12.2431C7.82351 12.2259 7.83381 12.211 7.84713 12.2003C7.86045 12.1896 7.87621 12.1836 7.89248 12.183C7.91434 12.1834 7.93593 12.1886 7.95601 12.1985C7.9761 12.2084 7.99428 12.2227 8.00952 12.2406C8.02476 12.2585 8.03676 12.2797 8.04483 12.3029C8.0529 12.3261 8.05689 12.3509 8.05656 12.3759L8.05358 13.6355ZM9.82915 14.167C9.82915 14.167 9.59681 14.6479 9.32922 14.6479C9.06163 14.6479 8.82854 14.167 8.82854 14.167V12.8806C8.82854 12.8458 8.83673 12.8114 8.85262 12.7814L9.0023 12.4853C9.01669 12.4578 9.03704 12.435 9.06139 12.4191C9.08574 12.4032 9.11326 12.3948 9.14131 12.3946H9.50918C9.53719 12.3946 9.56471 12.403 9.58901 12.4189C9.6133 12.4348 9.63354 12.4577 9.64769 12.4853L9.80209 12.7814C9.8173 12.8116 9.82535 12.8458 9.82542 12.8806L9.82915 14.167ZM10.933 13.3454C10.933 13.3454 10.8116 13.6596 10.6724 13.6596C10.6482 13.6586 10.6246 13.6503 10.6041 13.6355V12.3793C10.6038 12.3543 10.6078 12.3295 10.6158 12.3063C10.6239 12.2831 10.6358 12.262 10.6511 12.2441C10.6663 12.2262 10.6844 12.2119 10.7045 12.202C10.7245 12.1921 10.7461 12.1868 10.7679 12.1864C10.7842 12.1869 10.8001 12.1929 10.8134 12.2036C10.8268 12.2143 10.8371 12.2292 10.8432 12.2466L10.9241 12.44C10.9318 12.4606 10.9358 12.4828 10.936 12.5052L10.933 13.3454ZM9.83957 6.23149C9.83828 6.2251 9.83654 6.21884 9.83436 6.21277L9.814 6.12713L9.32922 4.04224L8.89234 5.91842L8.83673 6.15804L8.82333 6.21533C8.81079 6.25023 8.80869 6.28889 8.81735 6.32529C8.82601 6.3617 8.84496 6.39382 8.87124 6.41667L8.96954 6.50174L9.32922 5.96804L9.68915 6.50203L9.7872 6.41639C9.80048 6.40531 9.8117 6.39134 9.82021 6.37527C9.83216 6.35472 9.84008 6.33145 9.84343 6.30708C9.84677 6.2827 9.84545 6.25778 9.83957 6.23404M9.32922 8.04528C9.84851 8.04528 10.093 7.45033 10.093 7.45033C10.003 7.49813 9.90508 7.52346 9.80581 7.52462C9.68071 7.51271 9.61393 7.26798 9.32922 7.26798C9.0445 7.26798 8.97673 7.51271 8.85262 7.52462C8.75312 7.5234 8.65498 7.49808 8.56468 7.45033C8.56468 7.45033 8.80993 8.045 9.32922 8.045V8.04528Z" fill="white"/>
<path d="M12.4592 5.92407L12.2696 6.79297C12.2475 6.8918 12.1942 6.97779 12.1199 7.0343L9.8938 8.78542V9.53691L9.74412 9.65488L9.51922 9.44956C9.49808 9.42983 9.47155 9.4192 9.44426 9.41951H9.20943C9.18216 9.41939 9.15569 9.43 9.13447 9.44956L8.90958 9.65488L8.75965 9.53691V8.78542L6.5338 7.0343C6.45962 6.97757 6.40626 6.89169 6.38387 6.79297L6.19422 5.92436H4.68848L5.13826 6.83579C5.28255 7.12746 5.48879 7.37293 5.73798 7.54956L8.21107 9.28594V9.68664L8.9972 10.4166C9.03966 10.4557 9.0926 10.4769 9.14713 10.4767H9.50309C9.55761 10.4768 9.61053 10.4556 9.65302 10.4166L10.4392 9.68664V9.28594L12.9125 7.54956C13.1616 7.37298 13.3678 7.12749 13.512 6.83579L13.9617 5.92436H12.459L12.4592 5.92407Z" fill="white"/>
<path d="M70.8125 7.93474L70.0457 8.70495C69.7764 8.27815 69.5016 8.06462 69.2213 8.06405C69.1009 8.05807 68.9827 8.10209 68.8884 8.18798C68.8496 8.22051 68.8178 8.26268 68.7954 8.31131C68.7729 8.35995 68.7604 8.41377 68.7589 8.46872C68.7599 8.57648 68.7924 8.68056 68.851 8.76478C68.9351 8.88814 69.1881 9.15414 69.6103 9.5625C70.005 9.9391 70.2445 10.1767 70.3289 10.2754C70.5131 10.4752 70.6653 10.7101 70.7787 10.9696C70.8675 11.1974 70.9123 11.4443 70.9098 11.6936C70.916 11.9296 70.8782 12.1643 70.7989 12.3823C70.7196 12.6003 70.6006 12.7964 70.4498 12.9578C70.142 13.2896 69.7399 13.4558 69.2439 13.4558C68.8856 13.4651 68.533 13.3518 68.2314 13.1305C67.9439 12.9144 67.698 12.5739 67.4932 12.1088L68.3632 11.5096C68.6251 12.058 68.9247 12.3322 69.2625 12.3331C69.4265 12.3394 69.5866 12.2763 69.7123 12.1559C69.7676 12.1075 69.8126 12.0455 69.8439 11.9745C69.8753 11.9035 69.8923 11.8253 69.8935 11.7458C69.8893 11.5918 69.8412 11.4437 69.7565 11.3238C69.6649 11.1835 69.4638 10.9685 69.1531 10.6787C68.5605 10.1263 68.1778 9.7006 68.005 9.40171C67.843 9.13855 67.753 8.82638 67.7464 8.50474C67.7443 8.29487 67.7817 8.08693 67.856 7.895C67.9303 7.70306 68.0399 7.53161 68.1773 7.39224C68.4648 7.08453 68.8468 6.91848 69.2407 6.93001C69.5107 6.92946 69.7768 7.0034 70.0164 7.14553C70.2609 7.28874 70.5263 7.5519 70.8125 7.93474ZM71.7381 7.0908H74.7426V8.25575H73.7527V13.2993H72.7034V8.25575H71.7381V7.0908ZM77.4895 7.0908H78.5388L80.6296 13.2993H79.5543L79.1286 12.0206H76.9102L76.4678 13.2993H75.3962L77.4895 7.0908ZM78.0207 8.73671L77.2917 10.8678H78.7463L78.0207 8.73671ZM81.8789 7.0908H82.9756C83.575 7.0908 84.003 7.15205 84.2587 7.27399C84.5148 7.39799 84.7299 7.61167 84.873 7.88426C85.0329 8.18822 85.1137 8.53789 85.1061 8.89239C85.1182 9.25727 85.0282 9.61706 84.8492 9.91953C84.6537 10.2136 84.3832 10.4312 84.075 10.5426L85.364 13.2993H84.2331L83.0108 10.6702H82.9155V13.2993H81.8789V7.0908ZM82.914 9.51713H83.2384C83.5676 9.51713 83.794 9.46835 83.9183 9.3691C84.0427 9.26984 84.1043 9.1065 84.1043 8.87793C84.1066 8.75193 84.0743 8.62827 84.0119 8.5243C83.9513 8.42502 83.8652 8.34971 83.7654 8.30878C83.6619 8.26483 83.473 8.24299 83.198 8.24299H82.914V9.51713ZM86.0422 7.0908H89.0477V8.25575H88.0568V13.2993H87.0075V8.25575H86.0429L86.0422 7.0908ZM90.1389 7.0908H93.1075V8.24724H91.1671V9.37023H93.1075V10.5048H91.1671V12.1388H93.1075V13.2993H90.1389V7.0908ZM94.5211 7.0908H95.6175C96.217 7.0908 96.6442 7.15205 96.8999 7.27399C97.1562 7.3979 97.3714 7.6116 97.5145 7.88426C97.6742 8.18829 97.7549 8.53793 97.7473 8.89239C97.7599 9.25734 97.6699 9.6173 97.4904 9.91953C97.3196 10.194 97.0617 10.4016 96.7162 10.5426L98.0045 13.3027H96.8728L95.6505 10.6736H95.5567V13.3027H94.5226L94.5211 7.0908ZM95.5567 9.51713H95.8811C96.2103 9.51713 96.4374 9.46835 96.561 9.3691C96.6847 9.26984 96.747 9.1065 96.747 8.87793C96.7493 8.75193 96.717 8.62827 96.6546 8.5243C96.5941 8.42489 96.5079 8.34954 96.4081 8.30878C96.3046 8.26483 96.116 8.24299 95.8407 8.24299H95.5567V9.51713Z" fill="black"/>
</g>
<defs>
<clipPath id="clip0_1140_4755">
<rect width="105" height="19" fill="white"/>
</clipPath>
</defs>
</svg>
